<svg id="Mark" xmlns="http://www.w3.org/2000/svg" viewBox="0 0 202.51 198.16"><defs><style>.cls-1{fill:#fff;}.cls-2{fill:#fdb913;}.cls-3{fill:#4f729d;}.cls-4{fill:none;}</style></defs><path class="cls-1" d="M65.87,84.12c0-1.53-.11-1.93-1.14-2l-.71,0c-.12-.09-.09-.5,0-.51,1.23-.11,2.78-.17,4.9-.17a9.44,9.44,0,0,1,3.84.58,2.68,2.68,0,0,1,1.73,2.57c0,1.48-1,2.24-2.33,2.81,0,.21.19.27.44.31a3.52,3.52,0,0,1,3,3.43c0,2.38-2,4-6.06,4-.67,0-1.78-.06-2.74-.06s-1.78,0-2.62.06a.37.37,0,0,1,0-.52l.41-.06c1.21-.18,1.26-.41,1.26-2.57Zm1.87,2.73c0,.57,0,.61,1.18.57,2.33-.08,3.58-.7,3.58-2.63S70.84,82,69.1,82a3.09,3.09,0,0,0-1,.12c-.23.06-.32.17-.32.54Zm0,4.77a3.73,3.73,0,0,0,.47,2.24,2.39,2.39,0,0,0,1.81.57c2,0,3.58-.82,3.58-2.88,0-1.62-.91-3.51-4.54-3.51-1.23,0-1.32.12-1.32.53Z"/><path class="cls-1" d="M91.53,86.14c0-1.86,0-2.16-1.19-2.25l-.49,0c-.11-.06-.08-.38,0-.43,1,0,1.64,0,2.46,0s1.44,0,2.41,0c.12,0,.16.37,0,.43l-.49,0c-1.15.09-1.18.39-1.18,2.25v6.25c0,1.86,0,2.1,1.18,2.23l.49,0c.12.07.08.38,0,.44-1,0-1.63-.06-2.41-.06s-1.48,0-2.46.06a.32.32,0,0,1,0-.44l.49,0c1.15-.13,1.19-.37,1.19-2.23Z"/><path class="cls-1" d="M102.34,92.42c0,1.85,0,2.11,1.09,2.2l.59,0c.1.07.07.38,0,.44-1,0-1.66-.06-2.39-.06s-1.37,0-2.54.06a.3.3,0,0,1,0-.44l.66,0c1-.09,1.13-.35,1.13-2.2V84.57c0-.54,0-.56-.55-.56h-1a3.9,3.9,0,0,0-2.25.44,3.38,3.38,0,0,0-.82,1.21.35.35,0,0,1-.47-.12,18.22,18.22,0,0,0,.69-2.62.53.53,0,0,1,.35,0c.11.57.71.55,1.55.55h7.39c1,0,1.15,0,1.43-.49.09,0,.29,0,.32,0a10.46,10.46,0,0,0-.27,2.67c-.07.14-.38.14-.47,0a2.25,2.25,0,0,0-.46-1.28,3.74,3.74,0,0,0-2.12-.44h-1.29c-.55,0-.53,0-.53.6Z"/><path class="cls-1" d="M110.16,86.14c0-1.86,0-2.16-1.19-2.25l-.48,0c-.12-.06-.08-.38,0-.43,1,0,1.64,0,2.46,0s1.44,0,2.42,0c.11,0,.15.37,0,.43l-.49,0c-1.15.09-1.19.39-1.19,2.25v6.25c0,1.86,0,2.1,1.19,2.23l.49,0c.11.07.07.38,0,.44-1,0-1.64-.06-2.42-.06s-1.48,0-2.46.06a.32.32,0,0,1,0-.44l.48,0c1.15-.13,1.19-.37,1.19-2.23Z"/><path class="cls-1" d="M118.89,95.29a7.45,7.45,0,0,1-3.23-.65,7,7,0,0,1-.56-2.46c.11-.12.42-.16.5-.05a3.59,3.59,0,0,0,3.56,2.61c1.74,0,2.59-1,2.59-2,0-.77-.18-1.63-1.7-2.45l-2-1.09a3.75,3.75,0,0,1-2.24-3c0-1.67,1.53-3,4.22-3a9.54,9.54,0,0,1,1.93.23,3.21,3.21,0,0,0,.72.1,6.58,6.58,0,0,1,.38,2.15.49.49,0,0,1-.52,0,2.6,2.6,0,0,0-2.82-2c-2,0-2.46,1.14-2.46,1.94,0,1,1,1.76,1.76,2.16l1.66.88c1.3.68,2.58,1.7,2.58,3.37C123.3,94,121.59,95.29,118.89,95.29Z"/><path class="cls-1" d="M129.32,89.39c-.91,0-.95,0-.95.56v2.47c0,1.85.1,2.09,1.15,2.2l.55,0c.12.07.08.38,0,.44-1,0-1.67-.06-2.4-.06s-1.46,0-2.19.06a.32.32,0,0,1,0-.44l.32,0c1.06-.18,1.09-.35,1.09-2.2V86.1c0-1.84-.13-2.14-1.11-2.21l-.49,0c-.11-.06-.08-.38,0-.43.92,0,1.56,0,2.38,0s1.38,0,2.19,0c.11,0,.15.37,0,.43l-.36,0c-1.1.11-1.14.37-1.14,2.21v2c0,.54,0,.56.95.56h5.4c.91,0,.95,0,.95-.56v-2c0-1.84,0-2.1-1.16-2.21l-.36,0c-.11-.06-.07-.38,0-.43.87,0,1.51,0,2.29,0s1.38,0,2.22,0c.12,0,.16.37,0,.43l-.39,0c-1.1.11-1.14.37-1.14,2.21v6.32c0,1.85,0,2.07,1.14,2.2l.45,0c.12.07.08.38,0,.44-.9,0-1.55-.06-2.28-.06s-1.46,0-2.29.06a.33.33,0,0,1,0-.44l.36,0c1.16-.18,1.16-.35,1.16-2.2V90c0-.53,0-.56-.95-.56Z"/><path class="cls-1" d="M55.05,99a9.28,9.28,0,0,1,5.75-1.8,16.81,16.81,0,0,1,3.76.51,1.78,1.78,0,0,0,.6.09c0,.48.12,1.82.29,3.11a.45.45,0,0,1-.57,0c-.32-1.45-1.28-3.1-4.36-3.1-3.25,0-6,2.06-6,6.44s2.83,6.91,6.32,6.91a4.53,4.53,0,0,0,4.44-3,.45.45,0,0,1,.56.09,8.12,8.12,0,0,1-1,2.9,4.35,4.35,0,0,0-.75.21,12.55,12.55,0,0,1-3.36.49,9.31,9.31,0,0,1-5.29-1.42,6.81,6.81,0,0,1-3-5.83A7.05,7.05,0,0,1,55.05,99Z"/><path class="cls-1" d="M66.69,105.82a6.23,6.23,0,0,1,6.56-6.2c4.26,0,6.39,2.93,6.39,6a6.14,6.14,0,0,1-6.39,6.13C69.16,111.77,66.69,109,66.69,105.82Zm11.11.37c0-2.9-1.35-6-4.87-6-1.91,0-4.4,1.24-4.4,5.09,0,2.6,1.33,6,5,6C75.7,111.23,77.8,109.65,77.8,106.19Z"/><path class="cls-1" d="M100.44,104.31a11.77,11.77,0,0,0-.36-3.63,1.16,1.16,0,0,0-.93-.37l-.46,0a.3.3,0,0,1,0-.42c.7,0,1.39.06,2.12.06s1.28,0,2-.06a.29.29,0,0,1,0,.42l-.45,0a1.1,1.1,0,0,0-.93.42,14.86,14.86,0,0,0-.26,3.58v2a5.88,5.88,0,0,1-1.3,4.2,5.1,5.1,0,0,1-3.56,1.28,5.52,5.52,0,0,1-3.48-1c-1-.77-1.45-2-1.45-4.14v-4.14c0-1.82,0-2.12-1.11-2.21l-.47,0c-.11-.07-.07-.36,0-.42.93,0,1.56.06,2.31.06s1.37,0,2.28-.06c.12.06.15.35,0,.42l-.45,0c-1.07.09-1.11.39-1.11,2.21v3.79c0,2.83.93,4.69,3.78,4.69,2.69,0,3.72-2,3.72-4.67Z"/><path class="cls-1" d="M122.06,102.12c0-1.32-.08-1.65-1-1.72l-.66-.07c-.08-.06-.12-.42,0-.43,1.11-.08,2.51-.14,4.42-.14a8.85,8.85,0,0,1,3.45.5,2.32,2.32,0,0,1,1.57,2.21c0,1.28-.86,1.94-2.1,2.43,0,.18.17.23.39.27a3.1,3.1,0,0,1,2.76,3c0,2.05-1.77,3.44-5.47,3.44-.6,0-1.61-.06-2.47-.06s-1.61,0-2.37.06a.32.32,0,0,1,0-.45l.37-.05c1.09-.16,1.13-.35,1.13-2.22Zm1.69,2.36c0,.49,0,.53,1.07.49,2.1-.07,3.23-.6,3.23-2.27s-1.5-2.39-3.07-2.39a2.6,2.6,0,0,0-.94.11c-.21,0-.29.14-.29.46Zm0,4.11a3.07,3.07,0,0,0,.43,1.93,2.19,2.19,0,0,0,1.63.5c1.83,0,3.22-.71,3.22-2.48,0-1.41-.82-3-4.09-3-1.11,0-1.19.11-1.19.46Z"/><rect class="cls-2" x="64.11" y="116.28" width="74.71" height="0.88"/><path class="cls-1" d="M88.55,94.67l-.49,0-.27,0c-.71-.13-1-.76-1.33-1.35l-1.69-2.93c-.29-.49-.6-1.15-1.26-1.24,1.72-.21,3.28-1.21,3.28-2.92,0-2-2-2.86-3.93-2.86-1.19,0-2.27,0-3.47,0l-2.13,0c-.37,0-.37.08-.37.28s.13.22.52.24c1.41.08,1.35.35,1.35,1.55v7.69c0,1.1.1,1.43-1.06,1.54l-.28,0-.49,0a.32.32,0,0,0,0,.43l.73,0c.64,0,1.28-.07,1.92-.07s1.26,0,1.89.07h0l.72,0c.12,0,.15-.33,0-.44l-.5,0-.27,0c-1.17-.08-1.09-.41-1.09-1.54V90.16c0-.17,0-.63.1-.76s.29-.09.46-.09c1.58,0,1.56.15,2.31,1.47l2,3.66c.16.29.29.64.7.64h1.77l.72,0A.31.31,0,0,0,88.55,94.67Zm-7.1-5.77c-.36,0-1.06.13-1.06-.34V85.19c0-1.31,0-1.5,1.62-1.5,1.85,0,3,.94,3,2.67a2.23,2.23,0,0,1-1,1.92A4.27,4.27,0,0,1,81.45,88.9Z"/><path class="cls-1" d="M81.83,102.58c0-1.84,0-2.13-1.25-2.21l-.49,0c-.11-.07-.07-.38,0-.44,1.08,0,1.74.06,2.51.06s1.41,0,2.38-.06c.11.06.15.37,0,.44l-.46,0c-1.14.08-1.18.37-1.18,2.21v6.11c0,1.1.06,1.56.41,1.89s.58.41,2.1.41a5.46,5.46,0,0,0,2.36-.23A3.67,3.67,0,0,0,89.55,109c.12-.09.49,0,.49.11a13.07,13.07,0,0,1-.81,2.45c-1,0-2.82,0-4.81,0H82.64c-.81,0-1.43,0-2.51,0a.32.32,0,0,1,0-.43l.58-.06c1.12-.1,1.16-.35,1.16-2.19Z"/><path class="cls-1" d="M133.56,102.61c0-1.86,0-2.16-1.16-2.24l-.47,0c-.12-.07-.08-.38,0-.44.95,0,1.6.06,2.39.06s1.41,0,2.35-.06c.12.06.16.37,0,.44l-.47,0c-1.12.08-1.16.38-1.16,2.24v6.25c0,1.86,0,2.11,1.16,2.23l.47.06c.12.07.08.38,0,.43-.94,0-1.59,0-2.35,0s-1.44,0-2.39,0a.31.31,0,0,1,0-.43l.47-.06c1.12-.12,1.16-.37,1.16-2.23Z"/><path class="cls-1" d="M118.41,111.09l-.28,0a.75.75,0,0,1-.52-.2c-.25-.26-.23-1-.23-1.3v-7.7c0-.33-.08-1.06.17-1.32a.88.88,0,0,1,.6-.17h0l.27,0,.48,0c.12-.07.08-.39,0-.44h-2.79c-.22,0-.43,0-.55.24l-4.22,8.79-3.73-8.49c-.13-.3-.14-.54-.53-.54h-2.89c-.12.05-.16.37,0,.44l.49,0,.28,0c.81,0,.86.23.78,1.09L105,109.7c-.06.83-.1,1.27-1,1.35l-.28,0-.49,0a.31.31,0,0,0,0,.44l.71,0c.44,0,.89-.06,1.34-.06s1,.05,1.45.07h0l.72,0a.31.31,0,0,0,0-.44l-.49,0-.27,0c-1.25-.09-1.22-1-1.15-2l.6-7.68h.14l4,9.45c0,.13.1.35.31.35s.24-.2.3-.34l4.55-9.68h.14v8.44c0,.33,0,1-.3,1.28a2.54,2.54,0,0,1-.78.22l-.26,0-.49.06a.3.3,0,0,0,0,.43l.71,0c.66,0,1.33-.07,2-.07.48,0,1.42.05,1.42.05l.75,0a.32.32,0,0,0,0-.44Z"/><path class="cls-1" d="M150.06,111.14l-.06-.06-.27,0c-.75-.17-1-1.08-1.33-1.74l-3.91-9.24c0-.11-.11-.35-.27-.35s-.27.26-.33.4l-3.73,9.23a6.16,6.16,0,0,1-.73,1.45,1.11,1.11,0,0,1-.72.27l-.31,0-.46.05a.32.32,0,0,0,0,.43l.72,0c.52,0,1-.07,1.54-.07s.86,0,1.29.06l.72,0a.31.31,0,0,0,0-.44l-.49,0-.26,0c-.45,0-1-.13-1-.62a3,3,0,0,1,.27-1l.58-1.38c.29-.66.17-.73,1-.73H145c.93,0,.79,0,1.2.94l.61,1.39a3,3,0,0,1,.27.91c0,.46-.5.49-1,.53l-.3,0-.46,0a.31.31,0,0,0,0,.44l.72,0c.55,0,1.1-.06,1.63-.06.68,0,1.36,0,2,.06h0a2.48,2.48,0,0,0,.29,0A.3.3,0,0,0,150.06,111.14ZM145,106.79h-2.28c-.08,0-.72.08-.72-.11a1.41,1.41,0,0,1,.06-.22l1.37-3.39c0-.09.18-.56.34-.56s.28.49.32.56l1.34,3.16s.14.34.14.41S145.07,106.79,145,106.79Z"/><path class="cls-1" d="M73.93,71.12c12.34,0,29.41,6.95,41.8,6.95,8.84,0,17.46-2.36,22.37-5.83a38.08,38.08,0,0,0,.52-6.27,37.55,37.55,0,0,0-75.1,0,38.42,38.42,0,0,0,.51,6.2A61.23,61.23,0,0,1,73.93,71.12Z"/><polygon class="cls-2" points="125.33 57.29 126.81 57.9 130.11 55.61 125.33 57.29"/><path class="cls-2" d="M70,54.72l-3.9-1.37.2-.48,4.39,1.47h0l.58-.33.23-.15-4.79-2,.2-.5,10.7,4.33.35-.15L67.37,50.32l.24-.48,11.24,5.23L79,55l-10.9-6.18.22-.47,15.74,8.57c.13-.24.4-.68.54-.91a140.66,140.66,0,0,0-11.76-9.85,140.24,140.24,0,0,0,13.27,7.68c.24-.31.44-.55.7-.84L73.39,41.17l.36-.37L84.59,50,74.55,40l.37-.39L86.2,50.49,75.7,38.84l.4-.36,9.7,10.39L77,37.71l.38-.35L88.68,51.17c.29-.25.54-.44.84-.67A140.24,140.24,0,0,0,82.34,37a138.86,138.86,0,0,0,9.38,12c.33-.19.66-.36,1-.53l-.06,0-8-15.87.47-.21L91.77,45,86.23,31.94l.49-.22,6.37,14.33L87.73,31.31l.5-.18,5.11,13.26-4-13.66.48-.17L95.1,47.5v0h0c.35-.12.71-.23,1.07-.32a138.65,138.65,0,0,0-1.61-15.1,139,139,0,0,0,4.17,14.59l1.12-.11v0h0l0,0L98.43,28.85l.52,0L100.33,43l-.24-14.21.54,0,.54,15.67.54-15.67.54,0L102,43l1.38-14.18.51,0-1.43,17.69,0,0h0c.37,0,.74.06,1.1.1a140,140,0,0,0,4.16-14.57,140.87,140.87,0,0,0-1.61,15.06c.37.1.73.2,1.08.32l5.29-16.88.49.17-4,13.66,5.11-13.26.5.19L109.2,46.11l6.37-14.33.49.22-5.54,13.09,6.59-12.63.47.21-7.92,15.81h0c.33.16.65.33,1,.5A140.38,140.38,0,0,0,120,37a142.55,142.55,0,0,0-7.15,13.4q.47.34.9.72l11.22-13.67.38.35L116.45,49l9.7-10.39.4.36L116.06,50.6l11.27-10.9.38.39-10,10.06,10.84-9.24.36.37L115.6,53h0c.23.26.45.52.67.79a139.1,139.1,0,0,0,13.17-7.62,138.86,138.86,0,0,0-11.67,9.77c.16.27.43.74.58,1l15.52-8.45.22.46-12.39,7,12.89-6,.23.49-12,5.85.23.08,12.21-4.94.21.5-11.35,4.83.21.09,7.56-2.53,1.14-.79.38.29,2.49-.83.2.47-2.16.76,3.11,2.38,1,.55a38,38,0,0,0-74.18.89L64,58l.46-.21.28-.13Z"/><path class="cls-3" d="M63.67,73A62.63,62.63,0,0,1,74,71.86c12.34,0,29.41,7,41.79,7,9.09,0,17.95-2.49,22.78-6.13a38.07,38.07,0,0,0-.47-15.5L132.9,54.3l-6.06,4.25L122.76,57c-1.38.7-9.89,6.39-9.89,6.39L109.61,61l-3.51-.7-4.67-3.4-5.36,3.68s-6,3.48-6.19,3.48-7.22-5.56-7.22-5.56l-3.23-3.4c-.55.34-2.74,1.35-2.74,1.35l-.12,0-2.12-.66-2.59-1.37L64,58l-.14.07a38.27,38.27,0,0,0-.84,8A37.58,37.58,0,0,0,63.67,73Z"/><path class="cls-1" d="M69.71,129.2c.42.85.81,1.68,1.24,2.47h0c.49-.85.94-1.78,1.39-2.7l1.69-3.44a10.65,10.65,0,0,0,1.37-3.46c.61.05,1,.05,1.35.05s1,0,1.6-.05a.38.38,0,0,1,0,.45l-.38,0c-1.14.11-1.28.45-1.26,1.71,0,1.91,0,5.24.2,7.83,0,.9,0,1.39.88,1.46l.58.05a.34.34,0,0,1,0,.45c-.74,0-1.48-.05-2.13-.05s-1.44,0-2.17.05a.33.33,0,0,1,0-.45l.52-.05c.88-.09.88-.38.88-1.53l0-7.51h0c-.12.2-.81,1.64-1.17,2.34L72.59,130c-.81,1.59-1.62,3.28-1.94,4.11a.23.23,0,0,1-.18.07.25.25,0,0,1-.17-.07,38.8,38.8,0,0,0-1.58-3.6L67.1,127c-.38-.83-.76-1.76-1.15-2.59h0c-.07,1.11-.12,2.16-.18,3.2s-.12,2.7-.12,4.23c0,1.34.1,1.62.81,1.68l.68.05c.13.11.11.4,0,.45-.61,0-1.31-.05-2-.05s-1.22,0-1.83.05c-.11-.09-.15-.36,0-.45l.4-.05c.75-.11,1-.22,1.11-1.48s.2-2.18.31-4c.09-1.49.16-3,.2-4,0-1.14-.11-1.41-1.21-1.55l-.29,0a.34.34,0,0,1,.07-.45c.55,0,1,.05,1.43.05s.9,0,1.49-.05a6.9,6.9,0,0,0,.94,3Z"/><path class="cls-1" d="M80.8,128.84c0-.7,0-.79-.49-1.12l-.16-.1a.26.26,0,0,1,0-.33,12.48,12.48,0,0,0,1.86-.88.17.17,0,0,1,.18.11c0,.63-.08,1.49-.08,2.23V132c0,1.3,0,1.48.69,1.57l.38.05c.12.09.09.4,0,.45-.54,0-1.06-.05-1.69-.05s-1.19,0-1.7.05a.32.32,0,0,1,0-.45l.38-.05c.66-.09.68-.27.68-1.57Zm1.5-5.13a.94.94,0,0,1-1.88,0,.94.94,0,0,1,1-1A.91.91,0,0,1,82.3,123.71Z"/><path class="cls-1" d="M85.33,128.84c0-.7,0-.79-.48-1.12l-.17-.1a.26.26,0,0,1,0-.33,9.38,9.38,0,0,0,1.8-.88.21.21,0,0,1,.2.13c0,.41,0,.68,0,.84a.19.19,0,0,0,.19.2,5,5,0,0,1,2.52-.92,2,2,0,0,1,2.11,2.24V132c0,1.3,0,1.48.68,1.57l.4.05a.31.31,0,0,1,0,.45c-.54,0-1.06-.05-1.69-.05s-1.19,0-1.67.05c-.13-.05-.16-.36,0-.45l.34-.05c.67-.11.69-.27.69-1.57v-2.68a1.56,1.56,0,0,0-1.69-1.78,2,2,0,0,0-1.53.63,1.47,1.47,0,0,0-.27,1.08V132c0,1.3,0,1.46.68,1.57l.32.05a.32.32,0,0,1,0,.45c-.49,0-1-.05-1.64-.05s-1.19,0-1.69.05a.31.31,0,0,1,0-.45l.38-.05c.66-.09.68-.27.68-1.57Z"/><path class="cls-1" d="M94.71,128.84c0-.7,0-.79-.49-1.12l-.16-.1a.26.26,0,0,1,0-.33,11.93,11.93,0,0,0,1.85-.88.17.17,0,0,1,.18.11c0,.63-.07,1.49-.07,2.23V132c0,1.3,0,1.48.68,1.57l.38.05a.32.32,0,0,1,0,.45c-.54,0-1.07-.05-1.7-.05s-1.19,0-1.69.05c-.13-.05-.16-.36,0-.45l.38-.05c.67-.09.69-.27.69-1.57Zm1.49-5.13a.94.94,0,0,1-1.87,0,.94.94,0,0,1,1-1A.91.91,0,0,1,96.2,123.71Z"/><path class="cls-1" d="M102.38,127a4.21,4.21,0,0,1,.29,1.46.31.31,0,0,1-.43.05,1.77,1.77,0,0,0-1.59-1.32,1.06,1.06,0,0,0-1.15,1.1c0,.74.76,1.14,1.39,1.5,1,.54,1.83,1.15,1.83,2.43s-1.26,2-2.59,2a3,3,0,0,1-1.93-.54A5.35,5.35,0,0,1,98,131.9a.31.31,0,0,1,.41,0c.31,1,.88,1.86,1.91,1.86a1.1,1.1,0,0,0,1.2-1.15c0-.83-.71-1.28-1.38-1.66-1-.59-1.78-1.22-1.78-2.22,0-1.31,1.08-2.05,2.45-2.05A3.09,3.09,0,0,1,102.38,127Z"/><path class="cls-1" d="M106.28,127.67c-.31,0-.32,0-.32.43v3.37c0,1,.12,2,1.31,2a1.52,1.52,0,0,0,.49-.09c.16-.06.39-.25.45-.25s.21.19.18.3a2.49,2.49,0,0,1-1.89.83c-1.55,0-1.87-.86-1.87-1.94v-4.13c0-.48,0-.52-.38-.52h-.51a.3.3,0,0,1,0-.38,3.38,3.38,0,0,0,1.15-.56,4.44,4.44,0,0,0,.76-1.06c.09,0,.3,0,.37.09v.81c0,.33,0,.35.33.35h2a.58.58,0,0,1,0,.75Z"/><path class="cls-1" d="M110.31,128.84c0-.7,0-.79-.49-1.12l-.16-.1a.26.26,0,0,1,0-.33,13.68,13.68,0,0,0,1.82-.88c.09,0,.14,0,.14.13v1c0,.09,0,.14.06.16a3.64,3.64,0,0,1,2-1.08.75.75,0,0,1,.81.72.8.8,0,0,1-.78.83.61.61,0,0,1-.39-.13,1.55,1.55,0,0,0-.8-.28.78.78,0,0,0-.64.36,2.7,2.7,0,0,0-.24,1.38V132c0,1.3,0,1.51.72,1.57l.65.05a.31.31,0,0,1,0,.45c-.84,0-1.37-.05-2-.05s-1.18,0-1.65.05c-.13-.05-.16-.36,0-.45l.34-.05c.67-.11.69-.27.69-1.57Z"/><path class="cls-1" d="M115.34,137.72a.67.67,0,0,1,.72-.72h.34a.67.67,0,0,0,.6-.33,11.11,11.11,0,0,0,1-2,2.49,2.49,0,0,0,.18-.77,3.43,3.43,0,0,0-.3-1.24l-1.41-3.85c-.3-.85-.43-1.28-1.06-1.41l-.45-.09a.32.32,0,0,1,0-.45c.58,0,1.12.06,1.71.06s1,0,1.57-.06a.31.31,0,0,1,0,.45l-.45.09c-.26.06-.4.11-.4.23a13.34,13.34,0,0,0,.52,1.7l.58,1.65a10.27,10.27,0,0,0,.52,1.28,9.11,9.11,0,0,0,.67-1.33l.61-1.42a8.8,8.8,0,0,0,.63-1.8c0-.13-.11-.25-.43-.31l-.56-.09a.29.29,0,0,1,0-.45c.57,0,1.11.06,1.58.06s.86,0,1.37-.06a.3.3,0,0,1,0,.45l-.3.06c-.6.1-.92.63-1.53,1.9l-1,2.07c-.6,1.21-2.07,4.34-2.95,6.31a1.2,1.2,0,0,1-1.16.84A.72.72,0,0,1,115.34,137.72Z"/><path class="cls-1" d="M134,130.39a3.67,3.67,0,0,1-3.8,3.87,3.56,3.56,0,0,1-3.69-3.71,3.78,3.78,0,0,1,3.84-3.89A3.6,3.6,0,0,1,134,130.39Zm-3.87-3.19c-1.19,0-2.07,1.14-2.07,3.12,0,1.64.74,3.4,2.32,3.4s2.08-1.66,2.08-3C132.43,129.15,131.81,127.2,130.1,127.2Z"/><path class="cls-1" d="M137.45,127.67c-.31,0-.31,0-.31.52V132c0,1.3,0,1.51.68,1.57l.65.05a.32.32,0,0,1,0,.45c-.81,0-1.34-.05-2-.05s-1.18,0-1.72.05a.31.31,0,0,1,0-.45l.41-.05c.67-.09.69-.27.69-1.57v-3.8c0-.48,0-.52-.36-.52h-.63a.25.25,0,0,1-.06-.34l.78-.38a.41.41,0,0,0,.27-.36,8,8,0,0,1,.56-3.17,3.54,3.54,0,0,1,3.24-2.29c.95,0,1.76.44,1.76,1.08a.68.68,0,0,1-.68.65.5.5,0,0,1-.43-.21,2,2,0,0,0-1.45-.79,1.38,1.38,0,0,0-1.27,1,9.34,9.34,0,0,0-.4,3v.52c0,.49,0,.51.31.51h2.05a.55.55,0,0,1-.13.75Z"/><path class="cls-1" d="M48.35,142.83c0-1.89,0-2.18-1.17-2.27l-.46,0a.36.36,0,0,1,0-.45c1,0,1.62.05,2.34.05s1.32,0,2.22-.05c.1.05.14.38,0,.45l-.43,0c-1.06.09-1.1.38-1.1,2.27v6.26c0,1.14.06,1.6.38,1.95.2.19.54.41,2,.41s1.91-.07,2.2-.23a3.89,3.89,0,0,0,1.19-1.79c.11-.09.45,0,.45.11a14.46,14.46,0,0,1-.76,2.52c-.92,0-2.63-.05-4.48-.05H49.1c-.75,0-1.33,0-2.34.05-.11-.05-.14-.34,0-.45l.54-.05c1.05-.11,1.09-.36,1.09-2.25Z"/><path class="cls-1" d="M60.41,148.28c.27-.09.31-.25.31-.52l0-.83c0-.67-.2-1.56-1.32-1.56-.5,0-1.12.25-1.15.8,0,.29,0,.51-.18.62a2,2,0,0,1-1,.34.23.23,0,0,1-.25-.25c0-.94,2-2.22,3.35-2.22s1.93.76,1.87,2.11l-.11,3.13c0,.83.13,1.57.83,1.57a1,1,0,0,0,.45-.11c.09-.05.18-.13.24-.13s.12.11.12.24a1.89,1.89,0,0,1-1.51.79,1.43,1.43,0,0,1-1.17-.56c-.07-.11-.18-.25-.29-.25a2.79,2.79,0,0,0-.7.36,2.63,2.63,0,0,1-1.3.45,1.87,1.87,0,0,1-1.26-.41,1.71,1.71,0,0,1-.56-1.26c0-.71.35-1.12,1.5-1.53Zm-1.11,3.17a2,2,0,0,0,1.09-.45c.22-.22.22-.47.24-.85l0-1.06c0-.2-.07-.23-.18-.23a3.29,3.29,0,0,0-.73.18c-1.07.36-1.59.63-1.59,1.33A1.09,1.09,0,0,0,59.3,151.45Z"/><path class="cls-1" d="M65.36,146.84c0-.7,0-.79-.49-1.12l-.16-.1a.26.26,0,0,1,0-.33,9.67,9.67,0,0,0,1.8-.88.22.22,0,0,1,.2.13,8,8,0,0,0,0,.84.19.19,0,0,0,.2.2,4.93,4.93,0,0,1,2.52-.92,2,2,0,0,1,2.11,2.24V150c0,1.3,0,1.48.68,1.57l.4.05c.12.09.09.4,0,.45-.54,0-1.06-.05-1.69-.05s-1.19,0-1.67.05a.31.31,0,0,1,0-.45l.34-.05c.67-.11.69-.27.69-1.57v-2.68a1.56,1.56,0,0,0-1.7-1.78,2,2,0,0,0-1.53.63,1.52,1.52,0,0,0-.27,1.08V150c0,1.3,0,1.46.69,1.57l.32.05a.32.32,0,0,1,0,.45c-.49,0-1-.05-1.64-.05s-1.19,0-1.7.05a.32.32,0,0,1,0-.45l.38-.05c.66-.09.68-.27.68-1.57Z"/><path class="cls-1" d="M80.2,149.38c0,1.42,0,2.09.53,2.09a2.9,2.9,0,0,0,.77-.18c.13,0,.15.48,0,.57a13.48,13.48,0,0,0-2.37.58c-.11,0-.2-.05-.2-.14V152a1.82,1.82,0,0,0,0-.56H78.8a3.74,3.74,0,0,1-2.27.83,3.31,3.31,0,0,1-3.33-3.46,4.09,4.09,0,0,1,4.36-4.14,3.69,3.69,0,0,1,1.2.16c.09,0,.11-.1.11-.25v-2.72c0-1.06,0-1.17-.56-1.49l-.18-.11a.27.27,0,0,1,0-.36,11.79,11.79,0,0,0,2-.76.21.21,0,0,1,.18.11c0,.54-.06,1.44-.06,2.24Zm-1.33-2.7a1,1,0,0,0-.2-.7,1.87,1.87,0,0,0-1.51-.76c-1.64,0-2.48,1.42-2.48,3s.92,3.19,2.68,3.19a2.2,2.2,0,0,0,1.39-.51,1.16,1.16,0,0,0,.12-.66Z"/><path class="cls-1" d="M85,151.58a2.82,2.82,0,0,1-2.35,2.61.3.3,0,0,1-.1-.44c.55-.17,1.47-.63,1.47-1.56,0-.76-.86-1-1-1.05a.52.52,0,0,1-.31-.52.82.82,0,0,1,.88-.81A1.6,1.6,0,0,1,85,151.58Z"/><path class="cls-1" d="M86.5,140.5a.3.3,0,0,1,.06-.43c.48,0,1.29.05,1.85.05s1.43,0,2.06-.05c.16.05.14.31,0,.43l-.41,0c-.38,0-.6.14-.6.31a14.78,14.78,0,0,0,.94,2.41c1,2.25,2.07,4.5,3.11,6.71.44-.9.92-1.9,1.39-2.91a3.59,3.59,0,0,0,.29-.74,1.67,1.67,0,0,0-.15-.47q-.94-2.16-2-4.32c-.27-.56-.54-.94-1.15-1l-.43,0a.27.27,0,0,1,0-.43c.52,0,1.2.05,1.92.05.9,0,1.57,0,2-.05.13.05.15.29,0,.43l-.47,0c-.7.05-.72.18-.38,1s.89,2,1.39,3.13c.34-.7.67-1.38,1.06-2.36.65-1.53.56-1.72,0-1.76l-.54,0c-.12-.18-.09-.38,0-.43.49,0,1,.05,1.69.05s1.32,0,1.73-.05c.13.05.14.29,0,.43l-.53,0c-.75.05-1.08.86-1.47,1.6s-1.14,2.23-1.41,2.86a1.49,1.49,0,0,0-.16.44,1.46,1.46,0,0,0,.13.43c.61,1.38,1.24,2.74,1.83,4.1.56-1.26,1.1-2.52,1.62-3.8.36-.86,1.32-3.25,1.44-3.58A10.18,10.18,0,0,0,102,141c0-.25-.21-.39-.59-.41l-.52,0c-.15-.16-.13-.36,0-.43.68,0,1.17.05,1.73.05s1.2,0,1.67-.05c.14.05.16.29,0,.43l-.35,0c-.9.09-1.06.63-2.14,3.13l-1.31,3c-.8,1.84-1.52,3.61-2.25,5.53a.38.38,0,0,1-.22.06.51.51,0,0,1-.25-.06c-.58-1.6-1.62-3.85-2.18-5.11a54.28,54.28,0,0,0-2.25,5.11.38.38,0,0,1-.22.06.66.66,0,0,1-.27-.06c-.3-.75-1-2.37-1.24-2.9-1.15-2.5-2.27-5-3.44-7.5-.34-.74-.56-1.23-1.31-1.3Z"/><path class="cls-1" d="M106.73,148.28c.27-.09.3-.25.3-.52l0-.83c0-.67-.2-1.56-1.31-1.56-.51,0-1.12.25-1.16.8,0,.29,0,.51-.18.62a2,2,0,0,1-1,.34.23.23,0,0,1-.25-.25c0-.94,2-2.22,3.34-2.22s1.93.76,1.88,2.11l-.11,3.13c0,.83.13,1.57.83,1.57a1,1,0,0,0,.45-.11c.09-.05.18-.13.23-.13s.13.11.13.24a1.89,1.89,0,0,1-1.51.79,1.44,1.44,0,0,1-1.18-.56c-.07-.11-.18-.25-.28-.25a2.64,2.64,0,0,0-.71.36,2.6,2.6,0,0,1-1.29.45,1.85,1.85,0,0,1-1.26-.41,1.71,1.71,0,0,1-.56-1.26c0-.71.34-1.12,1.49-1.53Zm-1.12,3.17a2,2,0,0,0,1.1-.45c.21-.22.21-.47.23-.85l0-1.06c0-.2-.07-.23-.18-.23a3.22,3.22,0,0,0-.74.18c-1.06.36-1.58.63-1.58,1.33A1.08,1.08,0,0,0,105.61,151.45Z"/><path class="cls-1" d="M112.62,145.67c-.31,0-.33.05-.33.43v3.37c0,1,.13,2,1.32,2a1.41,1.41,0,0,0,.48-.09c.16-.06.4-.25.45-.25s.22.19.18.3a2.48,2.48,0,0,1-1.89.83c-1.55,0-1.87-.86-1.87-1.94v-4.13c0-.48,0-.52-.38-.52h-.5a.3.3,0,0,1-.06-.38,3.55,3.55,0,0,0,1.16-.56,4.42,4.42,0,0,0,.75-1.06c.09,0,.31,0,.38.09v.81c0,.33,0,.35.32.35h2a.57.57,0,0,1,0,.75Z"/><path class="cls-1" d="M116.91,147.4c-.47,0-.48,0-.48.49,0,1.81,1.06,3.36,3,3.36a1.94,1.94,0,0,0,1.65-.88.24.24,0,0,1,.33.22,3.16,3.16,0,0,1-2.83,1.67,3.21,3.21,0,0,1-2.61-1.19,3.83,3.83,0,0,1-.76-2.34,3.78,3.78,0,0,1,3.62-4.07,2.36,2.36,0,0,1,2.56,2.15,1.18,1.18,0,0,1-.07.46c-.06.11-.31.13-1.07.13Zm1.12-.54c1.33,0,1.73-.07,1.87-.18s.11-.11.11-.34c0-.51-.34-1.14-1.39-1.14a2.12,2.12,0,0,0-2,1.57s0,.09.13.09Z"/><path class="cls-1" d="M123.12,146.84c0-.7,0-.79-.48-1.12l-.17-.1a.26.26,0,0,1,0-.33,13.11,13.11,0,0,0,1.82-.88c.09,0,.15.05.15.13v1c0,.09,0,.14.05.16a3.64,3.64,0,0,1,2-1.08.75.75,0,0,1,.81.72.8.8,0,0,1-.77.83.66.66,0,0,1-.4-.13,1.55,1.55,0,0,0-.79-.28.79.79,0,0,0-.65.36,2.72,2.72,0,0,0-.23,1.38V150c0,1.3,0,1.51.72,1.57l.64.05a.32.32,0,0,1,0,.45c-.85,0-1.37-.05-2-.05s-1.19,0-1.66.05a.32.32,0,0,1,0-.45l.34-.05c.66-.11.68-.27.68-1.57Z"/><path class="cls-1" d="M134.66,148.28c.27-.09.31-.25.31-.52l0-.83c0-.67-.2-1.56-1.32-1.56-.5,0-1.12.25-1.15.8,0,.29,0,.51-.18.62a2,2,0,0,1-1,.34.23.23,0,0,1-.25-.25c0-.94,2-2.22,3.35-2.22s1.93.76,1.87,2.11l-.11,3.13c0,.83.13,1.57.83,1.57a.93.93,0,0,0,.45-.11c.09-.05.18-.13.24-.13s.12.11.12.24a1.89,1.89,0,0,1-1.51.79,1.43,1.43,0,0,1-1.17-.56c-.07-.11-.18-.25-.29-.25a2.79,2.79,0,0,0-.7.36,2.63,2.63,0,0,1-1.3.45,1.87,1.87,0,0,1-1.26-.41,1.71,1.71,0,0,1-.56-1.26c0-.71.35-1.12,1.5-1.53Zm-1.11,3.17a2,2,0,0,0,1.09-.45c.22-.22.22-.47.24-.85l0-1.06c0-.2-.07-.23-.18-.23a3.29,3.29,0,0,0-.73.18c-1.07.36-1.59.63-1.59,1.33A1.09,1.09,0,0,0,133.55,151.45Z"/><path class="cls-1" d="M139.61,146.84c0-.7,0-.79-.49-1.12l-.16-.1a.26.26,0,0,1,0-.33,9.67,9.67,0,0,0,1.8-.88.22.22,0,0,1,.2.13,8,8,0,0,0,0,.84.19.19,0,0,0,.2.2,4.93,4.93,0,0,1,2.52-.92,2,2,0,0,1,2.11,2.24V150c0,1.3,0,1.48.68,1.57l.4.05c.12.09.09.4,0,.45-.54,0-1.06-.05-1.69-.05s-1.19,0-1.67.05a.31.31,0,0,1,0-.45l.34-.05c.67-.11.69-.27.69-1.57v-2.68a1.56,1.56,0,0,0-1.7-1.78,2,2,0,0,0-1.53.63,1.52,1.52,0,0,0-.27,1.08V150c0,1.3,0,1.46.69,1.57l.32.05a.32.32,0,0,1,0,.45c-.49,0-1-.05-1.64-.05s-1.19,0-1.7.05a.32.32,0,0,1,0-.45l.38-.05c.66-.09.68-.27.68-1.57Z"/><path class="cls-1" d="M154.46,149.38c0,1.42,0,2.09.52,2.09a2.9,2.9,0,0,0,.77-.18c.13,0,.15.48,0,.57a13.48,13.48,0,0,0-2.37.58c-.11,0-.2-.05-.2-.14V152a1.82,1.82,0,0,0,0-.56h-.07a3.74,3.74,0,0,1-2.27.83,3.31,3.31,0,0,1-3.33-3.46,4.09,4.09,0,0,1,4.36-4.14,3.82,3.82,0,0,1,1.21.16c.09,0,.1-.1.1-.25v-2.72c0-1.06,0-1.17-.55-1.49l-.18-.11a.27.27,0,0,1,0-.36,11.72,11.72,0,0,0,1.94-.76.21.21,0,0,1,.18.11c0,.54,0,1.44,0,2.24Zm-1.34-2.7a1.08,1.08,0,0,0-.19-.7,1.88,1.88,0,0,0-1.52-.76c-1.64,0-2.48,1.42-2.48,3s.92,3.19,2.68,3.19a2.2,2.2,0,0,0,1.39-.51,1.08,1.08,0,0,0,.12-.66Z"/><path class="cls-1" d="M29.34,160.84c0-1.71-.05-2-.79-2.1l-.57-.07a.31.31,0,0,1,0-.46c1-.09,2.25-.14,4-.14a6.39,6.39,0,0,1,3,.54,2.69,2.69,0,0,1,1.49,2.52,3.34,3.34,0,0,1-2.25,3c-.09.11,0,.29.09.43A19.4,19.4,0,0,0,38,169.36a2.08,2.08,0,0,0,1.24.5.16.16,0,0,1,0,.26,2.94,2.94,0,0,1-.79.09c-1.53,0-2.45-.45-3.73-2.27-.47-.67-1.21-1.91-1.77-2.72a1.26,1.26,0,0,0-1.27-.58c-.81,0-.85,0-.85.4v2.27c0,1.89,0,2.11,1.08,2.25l.38.05a.35.35,0,0,1,0,.45c-.81,0-1.42-.05-2.14-.05s-1.4,0-2.25.05c-.11-.05-.14-.32,0-.45l.45-.05c1-.13,1.08-.36,1.08-2.25Zm1.48,2.58a1.51,1.51,0,0,0,.05.59c.06.06.33.09,1.25.09a3,3,0,0,0,1.85-.47,2.55,2.55,0,0,0,.9-2.23A2.65,2.65,0,0,0,32,158.63c-1.12,0-1.17.07-1.17.58Z"/><path class="cls-1" d="M40.87,165.4c-.46,0-.48,0-.48.49,0,1.81,1.06,3.36,3,3.36a1.94,1.94,0,0,0,1.65-.88.24.24,0,0,1,.33.22,3.16,3.16,0,0,1-2.83,1.67,3.21,3.21,0,0,1-2.61-1.19,3.83,3.83,0,0,1-.76-2.34,3.78,3.78,0,0,1,3.62-4.07,2.36,2.36,0,0,1,2.56,2.15,1.18,1.18,0,0,1-.07.46c-.06.11-.31.13-1.06.13Zm1.12-.54c1.33,0,1.73-.07,1.87-.18s.11-.11.11-.34c0-.51-.34-1.14-1.39-1.14a2.09,2.09,0,0,0-2,1.57s0,.09.12.09Z"/><path class="cls-1" d="M50.59,163a4.21,4.21,0,0,1,.29,1.46.31.31,0,0,1-.43.05,1.77,1.77,0,0,0-1.59-1.32,1.06,1.06,0,0,0-1.15,1.1c0,.74.76,1.14,1.39,1.5.95.54,1.83,1.15,1.83,2.43s-1.26,2-2.59,2a3,3,0,0,1-1.93-.54,5.35,5.35,0,0,1-.21-1.82.31.31,0,0,1,.41,0c.31,1,.89,1.86,1.91,1.86a1.11,1.11,0,0,0,1.21-1.15c0-.83-.72-1.28-1.39-1.66-1-.59-1.78-1.22-1.78-2.22,0-1.31,1.08-2.05,2.45-2.05A3.09,3.09,0,0,1,50.59,163Z"/><path class="cls-1" d="M59.34,166.39a3.67,3.67,0,0,1-3.79,3.87,3.56,3.56,0,0,1-3.7-3.71,3.78,3.78,0,0,1,3.84-3.89A3.59,3.59,0,0,1,59.34,166.39Zm-3.87-3.19c-1.19,0-2.07,1.14-2.07,3.12,0,1.64.74,3.4,2.32,3.4s2.08-1.66,2.08-3C57.8,165.15,57.18,163.2,55.47,163.2Z"/><path class="cls-1" d="M62.34,167.36c0,1.24.31,2.07,1.68,2.07a2.34,2.34,0,0,0,1.45-.54,1.22,1.22,0,0,0,.36-1V164.9c0-1.18-.12-1.21-.66-1.43l-.24-.09a.24.24,0,0,1,0-.39,7.29,7.29,0,0,0,2.11-.33.19.19,0,0,1,.16.13c0,.34,0,.9,0,1.57v3c0,1.42,0,2,.55,2a3.07,3.07,0,0,0,.71-.09c.11.09.12.45,0,.52a9.71,9.71,0,0,0-2.36.67.25.25,0,0,1-.22-.13v-.73c0-.16,0-.26-.16-.26a4.63,4.63,0,0,1-2.48.94c-1.59,0-2.18-.79-2.18-2.25v-3c0-1.13,0-1.29-.54-1.53l-.22-.09a.26.26,0,0,1,0-.39,6.26,6.26,0,0,0,1.93-.33c.1,0,.16.06.18.13a12.14,12.14,0,0,0-.06,1.57Z"/><path class="cls-1" d="M70.47,164.84c0-.7,0-.79-.49-1.12l-.16-.1a.26.26,0,0,1,0-.33,13.58,13.58,0,0,0,1.81-.88c.09,0,.15.05.15.13v1c0,.09,0,.14,0,.16a3.67,3.67,0,0,1,2-1.08.75.75,0,0,1,.81.72.79.79,0,0,1-.77.83.66.66,0,0,1-.4-.13,1.55,1.55,0,0,0-.79-.28.8.8,0,0,0-.65.36,2.72,2.72,0,0,0-.23,1.38V168c0,1.3,0,1.51.72,1.57l.65.05c.12.09.09.4,0,.45-.85,0-1.37-.05-2-.05s-1.19,0-1.65.05a.31.31,0,0,1,0-.45l.34-.05c.67-.11.69-.27.69-1.57Z"/><path class="cls-1" d="M80.86,163a1,1,0,0,1,.27.72c0,.32-.18.67-.39.67a.31.31,0,0,1-.25-.13,2.47,2.47,0,0,0-1.8-1,2.6,2.6,0,0,0-2.49,2.9,3,3,0,0,0,2.9,3.08,2.21,2.21,0,0,0,2-1.08.29.29,0,0,1,.32.25,3.26,3.26,0,0,1-3,1.84,3.45,3.45,0,0,1-2.47-.92,3.57,3.57,0,0,1-1-2.66,4,4,0,0,1,4.36-4A4.36,4.36,0,0,1,80.86,163Z"/><path class="cls-1" d="M83.78,165.4c-.47,0-.49,0-.49.49,0,1.81,1.06,3.36,3,3.36a1.93,1.93,0,0,0,1.65-.88.24.24,0,0,1,.33.22,3.16,3.16,0,0,1-2.83,1.67,3.21,3.21,0,0,1-2.61-1.19,3.83,3.83,0,0,1-.76-2.34,3.78,3.78,0,0,1,3.62-4.07,2.36,2.36,0,0,1,2.56,2.15,1.18,1.18,0,0,1-.07.46c-.06.11-.31.13-1.06.13Zm1.11-.54c1.33,0,1.73-.07,1.87-.18s.11-.11.11-.34c0-.51-.34-1.14-1.38-1.14a2.11,2.11,0,0,0-2,1.57s0,.09.12.09Z"/><path class="cls-1" d="M96.82,170.13a5.59,5.59,0,0,1-2.81-.66,8.36,8.36,0,0,1-.49-2.52c.09-.13.36-.16.43-.06a3.28,3.28,0,0,0,3.1,2.69,2,2,0,0,0,2.25-2.07A2.69,2.69,0,0,0,97.83,165l-1.71-1.12a3.85,3.85,0,0,1-2-3.1c0-1.71,1.33-3.1,3.67-3.1a6.81,6.81,0,0,1,1.68.24,2.45,2.45,0,0,0,.63.11,7.94,7.94,0,0,1,.32,2.19c-.07.11-.36.17-.45.06a2.36,2.36,0,0,0-2.45-2,1.89,1.89,0,0,0-2.14,2A2.85,2.85,0,0,0,97,162.45l1.44.9a4,4,0,0,1,2.25,3.45C100.65,168.78,99.16,170.13,96.82,170.13Z"/><path class="cls-1" d="M104.37,163.51c-.31,0-.33.05-.33.43v3.37c0,1,.13,2,1.32,2a1.41,1.41,0,0,0,.48-.09c.17-.06.4-.26.45-.26s.22.2.18.31a2.48,2.48,0,0,1-1.89.83c-1.54,0-1.87-.87-1.87-1.95V164c0-.49,0-.52-.38-.52h-.5a.29.29,0,0,1,0-.38,3.58,3.58,0,0,0,1.15-.56,4.42,4.42,0,0,0,.75-1.06c.09,0,.31,0,.38.09v.81c0,.32,0,.34.33.34h2a.59.59,0,0,1,0,.76Z"/><path class="cls-1" d="M108.66,165.24c-.46,0-.48,0-.48.48,0,1.82,1.06,3.37,3,3.37a1.93,1.93,0,0,0,1.65-.88.24.24,0,0,1,.33.21,3.15,3.15,0,0,1-2.83,1.68,3.24,3.24,0,0,1-2.61-1.19,3.83,3.83,0,0,1-.76-2.34,3.78,3.78,0,0,1,3.62-4.07,2.36,2.36,0,0,1,2.56,2.14,1.21,1.21,0,0,1-.07.47c-.06.11-.31.13-1.06.13Zm1.12-.54c1.33,0,1.73-.08,1.87-.18s.11-.11.11-.35c0-.5-.34-1.13-1.38-1.13a2.1,2.1,0,0,0-2,1.57s0,.09.12.09Z"/><path class="cls-1" d="M114.85,164.5c-.41-1-.63-1.19-1.08-1.3l-.29-.07c-.09-.09-.1-.36.06-.43.56,0,1.06.05,1.6.05s1.08,0,1.57-.05a.28.28,0,0,1,0,.43l-.41.07c-.25,0-.4.15-.4.26a3.65,3.65,0,0,0,.29.93l1.12,2.76c.16.41.32.73.32.77a3.88,3.88,0,0,0,.42-.86l.88-2.18c.23-.58.25-.81.16-1a1,1,0,0,0-.83-.63l-.29-.07a.28.28,0,0,1,.06-.43c.45,0,1,.05,1.49.05s1.1,0,1.71-.05c.16.05.16.34.06.43l-.38.07c-.72.15-.69.2-.47.83s1.17,2.88,1.37,3.37a2,2,0,0,0,.23.5,2,2,0,0,0,.25-.5c.24-.52,1-2.43,1.23-3.19a2.72,2.72,0,0,0,.18-.77c0-.11-.11-.2-.32-.24l-.46-.07a.28.28,0,0,1,0-.43c.53,0,1,.05,1.43.05s.77,0,1.17-.05a.3.3,0,0,1,.05.43l-.36.07c-.43.09-.59.34-1,1.14-.49,1-1.35,3.17-1.69,4.08-.26.65-.47,1.17-.62,1.64a.32.32,0,0,1-.23.07.25.25,0,0,1-.2-.07c-.11-.32-.43-1.26-.74-2L120,166a9.74,9.74,0,0,0-.42-.92,9.23,9.23,0,0,0-.39.89l-.94,2.25c-.32.77-.57,1.42-.72,1.83a.25.25,0,0,1-.21.07.28.28,0,0,1-.22-.07c-.11-.38-.4-1.11-.54-1.49Z"/><path class="cls-1" d="M129.46,166.12c.27-.09.31-.25.31-.52l0-.83c0-.67-.2-1.57-1.32-1.57-.5,0-1.11.26-1.15.81,0,.29,0,.51-.18.61a1.9,1.9,0,0,1-1,.35.23.23,0,0,1-.26-.26c0-.93,2-2.21,3.35-2.21s1.93.76,1.87,2.11l-.1,3.13c0,.83.12,1.57.82,1.57a1.06,1.06,0,0,0,.45-.11.64.64,0,0,1,.24-.13c.07,0,.12.11.12.24a1.89,1.89,0,0,1-1.51.79,1.43,1.43,0,0,1-1.17-.56c-.07-.11-.18-.25-.29-.25a2.79,2.79,0,0,0-.7.36,2.7,2.7,0,0,1-1.29.45,1.79,1.79,0,0,1-1.26-.42,1.64,1.64,0,0,1-.56-1.26c0-.7.34-1.11,1.49-1.53Zm-1.11,3.17a2,2,0,0,0,1.1-.45c.21-.22.21-.47.23-.85l0-1.06c0-.2-.08-.23-.18-.23a3.22,3.22,0,0,0-.74.18c-1.06.36-1.59.63-1.59,1.33A1.09,1.09,0,0,0,128.35,169.29Z"/><path class="cls-1" d="M134.39,164.68c0-.7,0-.79-.48-1.12l-.17-.1c-.07-.08-.07-.28,0-.33a13.11,13.11,0,0,0,1.82-.88c.09,0,.15.05.15.12v1c0,.09,0,.14.05.16a3.64,3.64,0,0,1,2-1.08.75.75,0,0,1,.81.72.81.81,0,0,1-.77.83.66.66,0,0,1-.4-.13,1.48,1.48,0,0,0-.79-.29.8.8,0,0,0-.65.37,2.72,2.72,0,0,0-.23,1.38v2.45c0,1.3,0,1.51.72,1.57l.64,0a.32.32,0,0,1,0,.45c-.85,0-1.37-.05-2-.05s-1.19,0-1.66.05a.32.32,0,0,1,0-.45l.34,0c.67-.11.68-.27.68-1.57Z"/><path class="cls-1" d="M145.81,167.22c0,1.42,0,2.09.52,2.09a2.9,2.9,0,0,0,.77-.18c.13,0,.15.48,0,.57a13.39,13.39,0,0,0-2.38.58c-.11,0-.2-.06-.2-.15v-.3a2.41,2.41,0,0,0,0-.56h-.08a3.73,3.73,0,0,1-2.26.83,3.32,3.32,0,0,1-3.34-3.46,4.09,4.09,0,0,1,4.36-4.14,3.82,3.82,0,0,1,1.21.16c.09,0,.11-.11.11-.25v-2.72c0-1.06,0-1.17-.56-1.49l-.18-.11a.27.27,0,0,1,0-.36,12.69,12.69,0,0,0,1.94-.76.2.2,0,0,1,.18.11c0,.54-.05,1.44-.05,2.23Zm-1.33-2.7a1.13,1.13,0,0,0-.2-.71,1.9,1.9,0,0,0-1.51-.75c-1.64,0-2.49,1.42-2.49,3s.92,3.18,2.68,3.18a2.2,2.2,0,0,0,1.39-.5,1.09,1.09,0,0,0,.13-.67Z"/><path class="cls-1" d="M152.31,162.82a4.31,4.31,0,0,1,.29,1.46.31.31,0,0,1-.43.06,1.76,1.76,0,0,0-1.59-1.32,1.06,1.06,0,0,0-1.15,1.1c0,.74.76,1.13,1.39,1.5,1,.54,1.83,1.15,1.83,2.43s-1.26,2-2.59,2a3,3,0,0,1-1.92-.54,5.12,5.12,0,0,1-.22-1.82.3.3,0,0,1,.41,0c.31,1,.89,1.86,1.91,1.86a1.11,1.11,0,0,0,1.21-1.16c0-.82-.72-1.27-1.39-1.65-1-.6-1.78-1.23-1.78-2.22,0-1.31,1.08-2.05,2.45-2.05A3.24,3.24,0,0,1,152.31,162.82Z"/><path class="cls-1" d="M154.54,159.69c0-1.06,0-1.17-.56-1.49l-.18-.11a.27.27,0,0,1,0-.36,12.3,12.3,0,0,0,1.94-.76.19.19,0,0,1,.18.11c0,.54,0,1.44,0,2.23v3.78a.55.55,0,0,0,.07.35,4.05,4.05,0,0,1,2.43-.94,2.1,2.1,0,0,1,2.33,2.32v3c0,1.3,0,1.49.68,1.57l.49,0c.12.09.09.4,0,.45-.65,0-1.17-.05-1.8-.05s-1.19,0-1.68.05a.32.32,0,0,1,0-.45l.36,0c.67-.11.68-.27.68-1.57v-2.58c0-1.15-.56-1.92-1.71-1.92a2.14,2.14,0,0,0-1.4.48c-.33.27-.38.36-.38,1v3c0,1.3,0,1.48.68,1.57l.38,0c.13.07.09.4,0,.45-.54,0-1.07-.05-1.7-.05s-1.18,0-1.76.05c-.13-.05-.16-.36,0-.45l.45,0c.67-.08.69-.27.69-1.57Z"/><path class="cls-1" d="M164,164.68c0-.7,0-.79-.49-1.12l-.16-.1c-.07-.08-.07-.28,0-.33a11.93,11.93,0,0,0,1.85-.88c.09,0,.17,0,.18.11,0,.63-.07,1.49-.07,2.23v3.24c0,1.3,0,1.48.69,1.57l.37,0a.32.32,0,0,1,0,.45c-.54,0-1.06-.05-1.69-.05s-1.19,0-1.7.05a.32.32,0,0,1,0-.45l.37,0c.67-.09.69-.27.69-1.57Zm1.49-5.13a.94.94,0,0,1-1.87,0,.93.93,0,0,1,1-1A.9.9,0,0,1,165.45,159.55Z"/><path class="cls-1" d="M167.8,164.68c0-.7,0-.79-.49-1.12l-.16-.1c-.07-.08-.07-.28,0-.33a11.61,11.61,0,0,0,1.78-1c.11,0,.18,0,.21.12,0,.33-.07.6-.07.83s0,.24.16.24a5.73,5.73,0,0,1,2.52-.85,3.05,3.05,0,0,1,3,3.3,4.19,4.19,0,0,1-4.39,4.3,7.86,7.86,0,0,1-1-.07c-.16,0-.25.12-.25.5v1.89c0,1.28,0,1.44.68,1.53l.7.09a.32.32,0,0,1,0,.45c-.87,0-1.39-.05-2-.05s-1.19,0-1.69.05c-.13-.05-.16-.36,0-.45l.38,0c.67-.09.69-.27.69-1.57Zm1.33,3.35a1.17,1.17,0,0,0,.54,1.08,2.36,2.36,0,0,0,1.29.39c1.48,0,2.34-1.36,2.34-3.24,0-1.44-.81-2.9-2.43-2.9a2.2,2.2,0,0,0-1.53.51,1.62,1.62,0,0,0-.21,1.06Z"/><rect class="cls-4" width="202.51" height="198.16"/></svg>