<svg height='100px' width='100px'  fill="#000000" xmlns:x="http://ns.adobe.com/Extensibility/1.0/" xmlns:i="http://ns.adobe.com/AdobeIllustrator/10.0/" xmlns:graph="http://ns.adobe.com/Graphs/1.0/" xmlns="http://www.w3.org/2000/svg" xmlns:xlink="http://www.w3.org/1999/xlink" version="1.1" x="0px" y="0px" viewBox="0 0 100 100" style="enable-background:new 0 0 100 100;" xml:space="preserve"><g><g i:extraneous="self"><g><path d="M5273.1,2400.1v-2c0-2.8-5-4-9.7-4s-9.7,1.3-9.7,4v2c0,1.8,0.7,3.6,2,4.9l5,4.9c0.3,0.3,0.4,0.6,0.4,1v6.4     c0,0.4,0.2,0.7,0.6,0.8l2.9,0.9c0.5,0.1,1-0.2,1-0.8v-7.2c0-0.4,0.2-0.7,0.4-1l5.1-5C5272.4,2403.7,5273.1,2401.9,5273.1,2400.1z      M5263.4,2400c-4.8,0-7.4-1.3-7.5-1.8v0c0.1-0.5,2.7-1.8,7.5-1.8c4.8,0,7.3,1.3,7.5,1.8C5270.7,2398.7,5268.2,2400,5263.4,2400z"></path><path d="M5268.4,2410.3c-0.6,0-1,0.4-1,1c0,0.6,0.4,1,1,1h4.3c0.6,0,1-0.4,1-1c0-0.6-0.4-1-1-1H5268.4z"></path><path d="M5272.7,2413.7h-4.3c-0.6,0-1,0.4-1,1c0,0.6,0.4,1,1,1h4.3c0.6,0,1-0.4,1-1C5273.7,2414.1,5273.3,2413.7,5272.7,2413.7z"></path><path d="M5272.7,2417h-4.3c-0.6,0-1,0.4-1,1c0,0.6,0.4,1,1,1h4.3c0.6,0,1-0.4,1-1C5273.7,2417.5,5273.3,2417,5272.7,2417z"></path></g><g><path d="M5.9,76.6C5,76.6,4.2,77.2,4,78l-1.4,4.7c-0.4,1.3,0.6,2.6,1.9,2.6h6.6l2.6-8.7H5.9z"></path><polygon points="34.2,76.6 32.7,85.3 67.3,85.3 65.8,76.6    "></polygon><path d="M97.4,82.7L96,78c-0.2-0.9-1.1-1.4-1.9-1.4h-7.8l2.6,8.7h6.6C96.8,85.3,97.8,84,97.4,82.7z"></path><path d="M10.9,64.6h6.3l2.6-8.7h-7.5c-0.9,0-1.7,0.6-1.9,1.5l-1.4,4.7C8.5,63.4,9.5,64.6,10.9,64.6z"></path><polygon points="36.3,64.6 63.7,64.6 62.1,55.9 37.9,55.9    "></polygon><path d="M82.8,64.6h6.3c1.4,0,2.3-1.3,1.9-2.6l-1.4-4.7c-0.2-0.9-1.1-1.5-1.9-1.5h-7.5L82.8,64.6z"></path><path d="M17,44h6.2l2.6-8.7h-7.4c-0.9,0-1.7,0.6-1.9,1.5L15,41.4C14.7,42.7,15.6,44,17,44z"></path><polygon points="41.5,35.3 39.9,44 60.1,44 58.5,35.3    "></polygon><path d="M76.8,44H83c1.3,0,2.3-1.3,1.9-2.6l-1.4-4.7c-0.3-0.9-1.1-1.5-1.9-1.5h-7.4L76.8,44z"></path><path d="M23.1,23.4h6.1l2.6-8.7h-7.3c-0.9,0-1.7,0.6-1.9,1.5l-1.4,4.7C20.8,22.1,21.8,23.4,23.1,23.4z"></path><polygon points="56.4,23.4 54.9,14.7 45.1,14.7 43.6,23.4    "></polygon><path d="M76.9,23.4c1.4,0,2.3-1.3,1.9-2.6l-1.4-4.7c-0.2-0.9-1-1.5-1.9-1.5h-7.3l2.6,8.7H76.9z"></path><path d="M42,4.4h-3.2c-0.9,0-1.7,0.6-1.9,1.5L11.4,93c-0.4,1.3,0.6,2.6,1.9,2.6h13.4c1,0,1.8-0.7,2-1.7L44,6.8     C44.2,5.5,43.3,4.4,42,4.4z"></path><path d="M63.1,5.8c-0.3-0.9-1-1.5-1.9-1.5H58c-1.3,0-2.2,1.1-2,2.4l15.3,87.2c0.2,1,1,1.7,2,1.7h13.4c1.4,0,2.3-1.3,1.9-2.6     L63.1,5.8z"></path></g></g></g></svg>