<svg height='100px' width='100px'  fill="#933238" xmlns="http://www.w3.org/2000/svg" xmlns:xlink="http://www.w3.org/1999/xlink" version="1.1" x="0px" y="0px" viewBox="233.5 162.6 100 100" enable-background="new 233.5 162.6 100 100" xml:space="preserve"><g><path d="M301.4,241.8c0-0.4-0.4-0.8-0.8-0.8h-34.1c-0.4,0-0.8,0.4-0.8,0.8v3.1l-9.1,15.2h8.3l2.6-4.2h32.4l2.6,4.2h8.3l-9.1-15.2   V241.8z M271.5,248.8l2.3-3.9h19.2l2.3,3.9H271.5z"></path><path d="M306.4,165.1h-45.9c-9.1,0-16.5,7.4-16.5,16.5v47.5c0,9.1,10.5,16.5,19.6,16.5h0.3v-3.6c0-1.6,1.3-2.9,2.9-2.9h33.4   c1.6,0,2.9,1.3,2.9,2.9v3.6h0.3c9.1,0,19.6-7.4,19.6-16.5v-47.5C322.9,172.5,315.5,165.1,306.4,165.1z M271.9,172.4   c0-1.5,1.2-2.6,2.6-2.6h18c1.5,0,2.6,1.2,2.6,2.6v0.4c0,1.5-1.2,2.6-2.6,2.6h-18c-1.5,0-2.6-1.2-2.6-2.6V172.4z M258,226.8   c-3,0-5.4-2.4-5.4-5.4c0-3,2.4-5.4,5.4-5.4c3,0,5.4,2.4,5.4,5.4C263.4,224.3,261,226.8,258,226.8z M309,226.8c-3,0-5.4-2.4-5.4-5.4   c0-3,2.4-5.4,5.4-5.4s5.4,2.4,5.4,5.4C314.4,224.3,312,226.8,309,226.8z M314.4,203.3c0,2.8-2.3,5.1-5.1,5.1h-51.7   c-2.8,0-5.1-2.3-5.1-5.1v-18.8c0-2.8,2.3-5.1,5.1-5.1h51.7c2.8,0,5.1,2.3,5.1,5.1V203.3z"></path></g></svg>