<svg xmlns="http://www.w3.org/2000/svg" xmlns:xlink="http://www.w3.org/1999/xlink" width="100" height="100" viewBox="0 0 100 100"><circle stroke="none" fill="#d97b77" r="48%" cx="50%" cy="50%"></circle><g transform="translate(50 50) scale(0.69 0.69) rotate(0) translate(-50 -50)" style="fill:#933238"><svg fill="#933238" xmlns="http://www.w3.org/2000/svg" xmlns:xlink="http://www.w3.org/1999/xlink" version="1.1" x="0px" y="0px" viewBox="0 0 95 95" enable-background="new 0 0 95 95" xml:space="preserve"><g><path d="M47.499,11.04c-4.955,0-8.988,4.032-8.988,8.989s4.033,8.988,8.988,8.988c4.959,0,8.99-4.031,8.99-8.988   S52.458,11.04,47.499,11.04z M53.392,20.104c0,1.139-0.926,2.066-2.066,2.066h-1.684v1.686c0,1.139-0.928,2.065-2.066,2.065h-0.148   c-1.141,0-2.066-0.927-2.066-2.065V22.17h-1.686c-1.139,0-2.064-0.928-2.064-2.066v-0.148c0-1.14,0.926-2.066,2.064-2.066h1.686   v-1.686c0-1.139,0.926-2.065,2.066-2.065h0.148c1.139,0,2.066,0.927,2.066,2.065v1.686h1.684c1.141,0,2.066,0.927,2.066,2.066   V20.104z"></path><path d="M47.499,55.168c14.443,0,26.152-11.708,26.152-26.15c0-14.443-11.709-26.15-26.152-26.15   c-14.441,0-26.15,11.707-26.15,26.15C21.349,43.46,33.058,55.168,47.499,55.168z M47.499,6.999c9.832,0,17.805,5.779,17.805,12.91   S57.331,32.82,47.499,32.82s-17.801-5.78-17.801-12.911S37.667,6.999,47.499,6.999z"></path><path d="M48.698,74.587l-1.197,1.198l-1.197-1.198c-2.258-2.257-5.918-2.257-8.174,0c-2.258,2.258-2.258,5.917,0,8.175l9.371,9.371   l9.371-9.371c2.256-2.258,2.256-5.917,0-8.175C54.614,72.33,50.954,72.33,48.698,74.587z"></path><path d="M64.862,52.091c-4.842,3.653-10.844,5.847-17.363,5.847c-6.518,0-12.518-2.193-17.359-5.847   C18.507,56.492,3.515,65.656,10.583,72.725c4.719,4.719,13.973,7.73,24.48,9.037c-0.416-0.963-0.637-2.008-0.637-3.087   c0-2.081,0.811-4.037,2.283-5.509c1.471-1.471,3.426-2.28,5.506-2.28c1.977,0,3.842,0.731,5.285,2.066   c1.443-1.335,3.307-2.066,5.283-2.066c2.082,0,4.037,0.81,5.508,2.28c1.471,1.472,2.281,3.428,2.281,5.509   c0,1.079-0.219,2.124-0.635,3.087c10.508-1.307,19.762-4.318,24.48-9.037C91.483,65.658,76.497,56.492,64.862,52.091z"></path></g></svg></g></svg>