<svg height='100px' width='100px'  fill="#000000" xmlns="http://www.w3.org/2000/svg" xmlns:xlink="http://www.w3.org/1999/xlink" version="1.1" x="0px" y="0px" viewBox="0 0 100 100" enable-background="new 0 0 100 100" xml:space="preserve"><path fill="#000000" d="M83.061,32.842c0.039-0.32-14.797-13.404-33.092-13.404c-18.294,0-33.072,13.053-33.037,13.357L16.315,72H23  v6h6v5.166C29,84.179,29.821,85,30.833,85h0.333C32.179,85,33,84.179,33,83.166V78h8v2h20v-2h7v5.166C68,84.179,68.82,85,69.834,85  h0.332C71.18,85,72,84.179,72,83.166V78h6v-6h5.683L83.061,32.842z M27,75c-0.552,0-1-0.447-1-1s0.448-1,1-1s1,0.447,1,1  S27.552,75,27,75z M35.75,58.501c-1.059,0-1.917-0.858-1.917-1.917s0.858-1.917,1.917-1.917s1.917,0.858,1.917,1.917  S36.809,58.501,35.75,58.501z M37.547,47.538L20.718,47.75c0,0-0.362-10.68,3.261-13.974c3.294-2.994,12.611-5.961,13.277-2.329  C38.188,36.528,37.547,47.538,37.547,47.538z M41,74h-1V31h1V74z M57,48H44V30h13V48z M58,28H42v-4h16V28z M61,74h-1V31h1V74z   M65.75,58.501c-1.059,0-1.917-0.858-1.917-1.917s0.858-1.917,1.917-1.917s1.917,0.858,1.917,1.917S66.809,58.501,65.75,58.501z   M74.334,75c-0.645,0-1.167-0.522-1.167-1.166c0-0.645,0.522-1.167,1.167-1.167c0.644,0,1.166,0.522,1.166,1.167  C75.5,74.478,74.978,75,74.334,75z M79.751,47.75l-16.829-0.212c0,0-0.641-11.01,0.291-16.091c0.666-3.632,9.983-0.665,13.277,2.329  C80.113,37.07,79.751,47.75,79.751,47.75z"></path><rect x="37" y="83" fill="#000000" width="26" height="1"></rect><polygon fill="#000000" points="70,86 31,86 30,86 28,86 28,91 31,91 31,88 70,88 70,91 73,91 73,86 "></polygon></svg>