<svg height='100px' width='100px'  fill="#000000" xmlns="http://www.w3.org/2000/svg" viewBox="0 0 24 24" x="0px" y="0px"><title>Expresstrain</title><path d="M8,4.5H2a.5.5,0,0,0,0,1H4.59L5.5,10c0,.27-.26,1.46-2.5,1.46a.5.5,0,0,0,0,1c3.46,0,3.5-2.48,3.49-2.6L5.61,5.5H8a5.16,5.16,0,0,1,.54,0,7.65,7.65,0,0,0,2.4,4.7c1.7,1.55,4.13,2.34,7.22,2.34.48,0,1,0,1.49-.07A6,6,0,0,1,21.5,16c0,1.72-1.81,2.5-3.5,2.5H2a.5.5,0,0,0,0,1H18c2.17,0,4.5-1.1,4.5-3.5C22.5,11.55,12.09,4.5,8,4.5Zm3.63,5a6.7,6.7,0,0,1-2-3.75,25.66,25.66,0,0,1,9.17,5.8C15.64,11.68,13.24,11,11.63,9.52Z"></path><path d="M22,20.5H2a.5.5,0,0,0,0,1H22a.5.5,0,0,0,0-1Z"></path><path d="M18,14.5a1,1,0,1,0-1,1A1,1,0,0,0,18,14.5Zm-.5,0h0Z"></path></svg>