<?xml version="1.0" encoding="UTF-8"?>
<svg width="1200pt" height="1200pt" version="1.1" viewBox="0 0 1200 1200" xmlns="http://www.w3.org/2000/svg">
 <path d="m377.63 675.47-7.6914 41.688-23.82 49.738-9.0352 17.52-8.3867 18.926-7.6914 10.836-6.6953 14.27-10.777 31.246-15.531 34.766-12.781 26.258-13.379 22.57-18.168 18.91-15.18 15.422-11.387 9.9375-8.4375 12.539 6.0977 3.4922 21.625 0.30078 30.949-2.0508 11.688-4.043 9.0234-8.7461 7.3438 1.1523 3.9492-13.68-1.3438-20.184 2.8906-14.629 9.0352-24.215 5.543-11.387 14.629-27.156 14.281-21.926 19.859-22.117c12.191-11.242 20.426-28.262 21.926-32.16l18.973-24.215 16.934-25.117 12.574-23.375 9.0352-22.465 5.2422-15.18c0.69531 8.4844 0.39453 16.188-0.85156 23.062l-1.7539 19.824-8.4961 47.641-4.3906 17.23-1.4297 9.668-0.30078 8.4375 0.89844 7.0312 2.0508 5.8438 5.2422 7.8828 7.5977 10.141 6.8867 5.5938 92.965 78.254 15.434 10.777 14.328 8.1953 11.988 5.832 12.887 1.9453 14.566 5.8906 10.789 3.4922 20.473 0.60156 9.3359-2.3398 8.0273-3.2031-15.312-18.625-7.6445-10.535-7.2852-8.7734-6.6953-6.9961-4.7539-4.3906-6.0977-0.25391-10.738 0.53906 4.1406-4.4883 1.1992-5.1016-7.4883 0.85156-18.121 2.6055-12.539-0.55078-7.2852-2.9531-10.234-5.2422-13.98-9.0352-15.781-11.93-13.43-12.887-9.3359-9.3242-13.441-16.031-3.7812-7.8828-1.1523-8.4844 1.1523-9.6484 2.8906-10.477 4.6914-11.988 35.051-74.148 6.6953-21.312 0.60156-14.027 3.2031-7.8945 4.9922-3.4922 7.2852-2.0039 7.6445-0.53906h7.5352l9.9375 0.20312 22.43 0.28906 14.363-0.53906 23.93-1.2109 11.426-1.3906 15.191-3.4922 17.23-4.7031 18.359-4.332 14.281-3.5508 10.188-1.7539 8.7461 0.30078 6.1328 12.277 11.09 20.113 4.9922 7.2969 12.289 20.125 6.6484 8.1953 11.977 15.18 12.828 15.18 7.0312 7.5859 7.5977 10.547 2.8906 5.832-0.10938 10.23-0.45703 3.5039-4.0938 8.6875-2.6523 4.3906-5.4844 10.777-7.1055 14.09-9.1328 17.074-12.695 23.172-15.91 28.453-9.1445 13.824-29.258 46.441-14.867 15.18-12.828 11.375-10.488 11.387-2.6055 2.9883-2.3867 4.8945 0.28906 2.6523 6.1445 1.9922 7.5469 0.60156 23.113 0.55078 17.832-1.7539 13.066-4.9453 7.5977-10.188 3.9961 3.3828 1.2969 2.1016 2.293-4.4883 1.1992-4.4883-2.5938-16.934 2.832-17.219 2.0508-7.043 8.1484-16.934 13.727-25.402 8.7852-13.691 7.2852-12.828 12.875-20.41 23.867-32.953 27.215-33.348 8.4844-11.281 7.4883-9.4336 5.293-8.7852 1.5-5.5938-2.7969-5.9414-3.5391-6.3359-5.543-7.1406-4.3438-7.5469-2.207-5.6523 31.906 11.688 16.586 4.6445 17.52 5.293 17.473 5.2578 16.934 11.734 2.6406 2.293 12.277 27.406 18.984 49.922 4.043 12.254 10.078 28.152 3.0469 11.594 4.9922 11.09 4.9453 16.367 2.3398 5.832 6.6953 11.102 8.7461 9.9375 10.883 9.9258 13.477 6.3945 10.691 3.7812 25.402 6.9961 10.141 0.83984 9.7422-0.60156 5.1953-2.293 4.1406-1.6445-2.9883-5.8906-3.4922-6.7422-5.6523-7.9922-7.1406-9.9375-10.234-12.434-4.9453-0.28906-4.9375-0.62109-1.5-0.83984 0.30078-2.8906-7.6445-7.4883-9.2773 0.20312h-6.9961l-5.4961-1.1523-4.3789-3.793-7.9453-13.523-20.23-48.035-9.7812-22.57-31.945-118.19-6.0469-16.727-5.543-4.3984-26.016-13.738-16.621-9.0352-13.141-11.328-8.7344-9.9375-5.2578-11.977-2.1016-14.879-2.8438-16.934-1.9453-15.07-1.2852-13.586-0.86328-9.3359 9.0469 5.543 6.1445 0.30078 5.1953-6.7422v-9.1328l-1.9922-16.234-9.9375-22.273-11.09-22.609-3.9375-7.5352-8.5938-9.7422-11.137-9.9375-17.23-10.777-16.031-7.2852-20.52-7.0938-24.613-4.7539-16.477-1.5469-57.312-5.2422-53.328-3.5391-42.637-3.2031-19.523-3.2539-13.777-4.043-13.129-5.8438-12.684-9.4922-21.863-13.234-8.5781-4.3906-19.523-8.7461-16.488-5.5312-18.672-3.2031-17.867-0.39453-15.086 1.1992-34.137 11.961-25.414 9.5273-76.234 3.3477 11.93-16.477 4.0938-6.5898-11.23 0.25391-14.375 1.7891-16.934 4.6914-14.375 6.9961-6.6953 3.793-15.324 0.20313-6.5391-2.7969-1.1523-3.2539 0.79297-3.793 1.8477-4.0938 6.3945-4.9453 12.875-5.543 18.07-5.5312 26.016-5.293 28.906-6.6484 11.039-2.6406 26.004-10.488 14.328-9.9375 15.133-12.277 14.629-14.879 14.281-18.121 13.727-21.875 13.836-23.113 6.8867-12.781 1.4531-4.9453-0.003906-3.5391-1.7422-1.4414-3.2539 0.30078-4.6445 2.6523-6.4453 5.2422-7.5859 6.7422-8.8906 4.6914-7.9922 4.9453-8.1836 0.20312-0.60156-2.543 1.5-4.0938 6.5391-7.2344 2.1484-7.0938 0.30078-3.5039-3.4453-1.3906-6.793 3.1914-6.6484 4.6914-7.8828 6.6367-6.7422 6.4453-10.188 8.4961-8.1836 6.6953-5.543 2.3398-7.332-1.4531-1.7031-3.793v-5.8438l1.4531-5.293 2.2422-5.7852 0.64844-3.8398 0.28906-3.793-1.4414-2.0039h-4.9453l-4.043 2.3516-9.5273 10.488-9.5391 13.883-7.1406 11.93-9.7422 13.883-12.527 13.871-3.2539 1.5977-3.1914 0.60156-2.3398-1.7539-0.89844-4.0938v-6.4453l1.5-8.7344 3.1914-11.387 6.4453-19.824 2.1484-10.234 0.74219-2.5938-0.3125-3.793-1.1133-1.7539h-1.6914l-4.7539 2.8906-5.8438 5.8438-51.672 89.363-15.383 14.879-3.5391 3.7422-8.4961 4.0938-6.5391 1.5977-10.691 0.15625-11.578-4.0938-20.52-13.992-13.98-11.387-6.7422-3.793-4.9453-2.0508h-3.5039l-1.5 2.0508v3.4922l2.3516 5.5938 3.2383 5.4961 2.293 5.2422-0.53906 3.1914-4.3438 1.1992-20.773-9.0859-5.4375-2.2578-4.7539-3.2539-4.1406 0.097656-4.6211-0.61719-1.4531 2.2422 0.60156 3.5391 1.8945 3.1445 5.1953 6.7422 4.8945 6.7422-0.89844 5.8438-5.1953 0.60156-11.121-4.0859-6.1445-3.5039-5.8438-2.6406-4.6914-0.60156-2.8438 1.1992-0.89844 2.5938 1.4531 4.3906 3.4922 5.543 3.8398 6.0977 18.625 13.129 13.129 6.7422 14.328 4.6445 16.078 2.9531 16.934 1.7539 16.68 0.96094 8.4375 3.3945 3.7422 2.5938-0.25391 3.2539-3.2031 3.4922-12.277 7.8945-35.051 21.562-53.723 28.309-8.8789 5.8906-9.5391 6.6367-6.9961 8.7852-5.543 10.488-3.9492 13.777-1.1992 10.738-0.34375 11.805 1.1992 8.7344 1.9453 7.7539 1.7539 6.1445 13.727 0.55078 14.484-4.5 10.934 3.0469 6.6953 0.30078 6.4453-1.4531 28.609-17.52 15.48 2.3516 22.164 4.9453 9.6367 20.723 12.527 21.562 3.8398 6.4922 5.543 6.3477 8.4844 9.3828 9.2891 5.5312h6.6953l1.7539-2.9531 1.1523-4.3906-0.25391-15.73 0.25391-17.977 0.60156-11.785 91.715 39.996 5.543 4.3438 5.1953 7.8828 3 7.5859 2.2422 12.574 1.8008 23.93 2.8438 7.332 7.9453 13.738 15.875 23.16-0.64844-1.5977"/>
</svg>
