<svg xmlns="http://www.w3.org/2000/svg" xmlns:xlink="http://www.w3.org/1999/xlink" width="100" height="100" viewBox="0 0 100 100"><rect width="100%" height="100%" fill="#f5ebe0"></rect><g transform="translate(50 50) scale(0.69 0.69) rotate(0) translate(-50 -50)" style="fill:#f5deb5"><svg fill="#f5deb5" xmlns:x="http://ns.adobe.com/Extensibility/1.0/" xmlns:i="http://ns.adobe.com/AdobeIllustrator/10.0/" xmlns:graph="http://ns.adobe.com/Graphs/1.0/" xmlns="http://www.w3.org/2000/svg" xmlns:xlink="http://www.w3.org/1999/xlink" version="1.1" x="0px" y="0px" viewBox="0 0 100 100" style="enable-background:new 0 0 100 100;" xml:space="preserve"><g><g i:extraneous="self"><path d="M93.5,35.8l-29.3,0l0-29.3c0-2.2-1.8-4-4-4l-20.4,0c-2.2,0-4,1.8-4,4l0,29.3l-29.3,0c-2.2,0-4,1.8-4,4l0,20.4    c0,2.2,1.8,4,4,4l29.3,0l0,29.3c0,2.2,1.8,4,4,4l20.4,0c2.2,0,4-1.8,4-4l0-29.3l29.3,0c2.2,0,4-1.8,4-4l0-20.4    C97.5,37.6,95.7,35.8,93.5,35.8z"></path></g></g></svg></g></svg>