<?xml version="1.0" encoding="UTF-8"?>
<svg width="1200pt" height="1200pt" version="1.1" viewBox="0 0 1200 1200" xmlns="http://www.w3.org/2000/svg">
 <path d="m321.6 828h127.2l-118.8 88.801v223.2h-51.602l-37.199-253.2zm462 42 61.199 270h51.602l-42-324c-16.801 6-33.602 9.6016-51.602 12zm340.8-483.6-20.398 16.801c-9.6016 7.1992-21.602 12-33.602 12h-82.801l-31.199 237.6c-6 43.199-26.398 80.398-57.602 108-31.199 26.398-70.801 43.199-114 43.199l-51.602 117.6-12 220.8h-51.602l-15.602-224.4-53.992-115.2h-286.8l-157.2 114v223.2h-51.602l-44.398-337.2 34.801-33.602v-151.2c-19.199 0-34.801-15.602-34.801-34.801v-27.602c0-44.398 19.199-87.602 51.602-117.6 28.801-26.398 67.199-40.801 106.8-40.801l381.6 0.003907 105.6-84c-16.801-26.398-27.602-56.398-27.602-90 0-90 73.199-163.2 162-163.2 72 0 134.4 48 154.8 114l19.199 8.3984c16.801 8.3984 31.199 20.398 40.801 36l78 115.2c12 16.801 8.3984 40.801-8.4023 52.801zm-148.8-184.8c-10.801-70.801-75.602-123.6-151.2-115.2-64.801 7.1992-116.4 61.199-121.2 127.2-4.8008 79.203 58.801 146.4 136.8 146.4 15.602 0 31.199-2.3984 46.801-8.3984l-4.8008-7.1992c-8.3984-13.199-24-20.398-39.602-21.602h-1.1992c-38.398-1.1992-70.801-30-75.602-68.398-6-48 31.199-88.801 78-88.801 26.398 0 50.398 13.199 64.801 33.602 1.2031 2.3984 67.203 2.3984 67.203 2.3984zm-147.6-6c-20.398 7.1992-36 26.398-36 49.199l45.602-36zm202.8 87.598-15.602-22.801c-3.6016-4.8008-8.3984-8.3984-14.398-8.3984h-34.801l2.3984 9.6016c2.3984 12 13.199 20.398 25.199 20.398 3.6016 1.1992 37.203 1.1992 37.203 1.1992z"/>
</svg>
