<svg xmlns="http://www.w3.org/2000/svg" xmlns:xlink="http://www.w3.org/1999/xlink" width="100" height="100" viewBox="0 0 100 100"><rect width="100%" height="100%" fill="#f5ebe0"></rect><g transform="translate(50 50) scale(0.69 0.69) rotate(0) translate(-50 -50)" style="fill:#f5deb5"><svg fill="#f5deb5" xmlns="http://www.w3.org/2000/svg" xmlns:xlink="http://www.w3.org/1999/xlink" version="1.1" x="0px" y="0px" viewBox="0 0 91 91" enable-background="new 0 0 91 91" xml:space="preserve"><g><path d="M68.648,35.832H55.172V22.359c0-1.389-1.125-2.514-2.512-2.514H38.518c-1.389,0-2.514,1.125-2.514,2.514v13.473H22.527   c-1.387,0-2.512,1.125-2.512,2.512V52.49c0,1.389,1.125,2.514,2.512,2.514h13.477v13.475c0,1.387,1.125,2.512,2.514,2.512H52.66   c1.387,0,2.512-1.125,2.512-2.512V55.004h13.477c1.387,0,2.512-1.125,2.512-2.514V38.343C71.16,36.957,70.035,35.832,68.648,35.832   z M66.135,49.979H52.66c-1.389,0-2.514,1.125-2.514,2.512v13.475h-9.117V52.49c0-1.387-1.125-2.512-2.512-2.512H25.041v-9.122   h13.477c1.387,0,2.512-1.125,2.512-2.514V24.871h9.117v13.473c0,1.389,1.125,2.514,2.514,2.514h13.475V49.979z"></path><path d="M45.588,0.38c-24.834,0-45.037,20.203-45.037,45.038c0,24.834,20.203,45.039,45.037,45.039   c24.832,0,45.037-20.205,45.037-45.039C90.625,20.583,70.42,0.38,45.588,0.38z M45.588,85.432   c-22.063,0-40.012-17.951-40.012-40.014c0-22.063,17.949-40.012,40.012-40.012S85.6,23.355,85.6,45.418   C85.6,67.48,67.65,85.432,45.588,85.432z"></path></g></svg></g></svg>