<?xml version="1.0" encoding="UTF-8"?>
<svg width="1200pt" height="1200pt" version="1.1" viewBox="0 0 1200 1200" xmlns="http://www.w3.org/2000/svg">
 <path d="m1138.9 588.83c3.9102 3.4922 8.0898 5.4375 19.691 7.1641-3.5391-2.3398-10.523-8.207-12.07-13.414 4.1289 3.1094 9.6133 4.8125 17.438 7.1641-6.8398-7.1641-10.945-8.4844-14.316-11.629-1.1992-1.1055-3.3242-3.5625-4.4297-4.7539-2.0391-2.1719-6.4219-6.2266-8.1133-8.6641-1.6914-2.4609-1.6914-2.4609-5.3398-10.738 8.293 7.0938 6.4922 3.793 18.77 15.215-4.4023-12.852-12.516-20.578-20.578-27.742-8.0391-7.1523-9.8164-16.992-9.8164-16.992s-3.5898-38.461-11.629-50.988c-8.0625-12.516-23.316-32.988-67.105-45.613-3.4219-0.99609-12.613-3.1211-24.145-5.3633-20.578-4.0078-37.645-10.488-68.879-24.168-20.723-9.0703-47.953-9.6016-62.605-15.203-6.7578-2.5664-19.691-11.629-19.691-11.629l-10.738-6.2656-8.0898-2.9883-9.793-2.375s-17.879-10.738-21.469-10.738-23.258-7.1523-25.945-8.0391c-2.6758-0.89844-14.316-6.2656-19.691-9.8398-5.375-3.5742-26.809-10.738-26.809-10.738s-18.793-7.1523-22.379-7.1523c-3.5625 0-23.258-6.2656-28.621-7.1641-5.3398-0.88672-21.445-6.2656-21.445-6.2656l-21.238-6.2539-18.66-2.6172s-17.41 0.035156-22.738-1.8477c-4.2227-1.5-17.641-6.2383-23.902-6.2383-6.2656 0-19.031 2.7344-22.609 0.046875-3.5742-2.6875-25.043-6.2656-27.73-6.2656h-20.566c-3.5742 0-13.414-0.88672-17.004 0-3.5742 0.89844-25.559 0-25.559 0s-10.559-1.8594-16.777 0.3125c-6.2539 2.1719-29.207 7.668-31.895 7.668s-8.0508 2.6758-12.516 4.4766c-4.4766 1.7891-21.469 6.2656-21.469 6.2656l-19.68 8.9531s-14.734 4.3906-19.211 5.293c-4.4648 0.88672-14.688 10.332-16.477 13.02-1.7891 2.6875-3.9609 5.3867-9.3242 7.1758-5.3633 1.7891-11.195 6.4453-11.195 6.4453s-1.9453 5.6289-8.207 5.6289c-6.2539 0-8.0508 0.88672-10.738 1.7891-2.6758 0.89844-4.4648 3.5742-9.8398 4.4766-5.3633 0.88672-10.727 7.1523-10.727 7.1523s-5.2578 7.8945-5.2578 10.586c0 2.6758-8.0742 4.3438-8.0742 4.3438l-5.9023 4.3555s-3.4922 5.8086-4.9062 7.5586c-1.5859 1.9688-4.6445 6.8398-7.1523 7.1523-2.5938 0.3125-6.4336-4.668-8.9531-5.3633-1.9453-0.53906-6.0352 0-8.0508 0-2.0039 0-6.1094 0.51562-8.0391 0-3-0.81641-7.043-6.9375-9.7422-5.3867-1.2617 0.73047 0.20312 4.1172-0.99609 4.9453-7.1289 4.8711-7.957-6.5156-11.305-4.1992-2.3867 1.6562-1.0781 9.2891-3.8984 9.9961-3.2031 0.81641-5.1133-10.117-8.4102-10.02-3.1914 0.097656-4.2617 6.8984-5.3164 9.9258-2.4609 6.9609-1.2852 13.906-5.0508 16.199-1.7148 1.043-3.7812 1.332-5.207 2.7617-1.9062 1.9062-2.8555 5.1719-4.668 7.1523-6.6602 7.2969-4.2109 3.5508-5.5938 5.2812-1.9453 2.4492-7.043-5.7852-9.9492-4.6562-5.5938 2.1719-8.4375 2.7969-10.094 5.1836-3.4336 4.9336-7.6211-0.20312-6.5156 1.332 0.76953 1.0781-3.8867 1.8711-4.8359 2.8086-2.0508 2.0508-5.1836 0.78125-8.0742 0.9375-8.0898 0.44531-3.4453 8.1719-4.9805 10.871-4.0547 7.1875-10.738 1.1289-12.098 5.0742-2.0898 6.1094-2.7734 7.3789-3.1328 9.8516-1.1992 8.1602-9 6.4922-10.57 8.7109-1.0938 1.5352 2.375 7.3555 1.6445 9.0977-2.4102 5.8555-2.1484 10.848 0 13.414 1.4414 1.7148 5.9414 3.4922 7.1641 5.3633 1.1172 1.7383-0.33594 5.7734-1.3438 7.5586-4.1758 7.3906-1.1172 9.3125-1.5586 12.445-0.43359 3.0117-4.9922 5.8555-6.2539 8.6289-1.0078 2.2422 0.12109 7.3906 0 9.8398-0.34766 7.1758-7.3672 10.355-6.9609 14.305 0.9375 8.9023 1.1992 8.9883 0 11.629-0.92578 2.0391 0.58984 6.7812 0 8.9531-0.81641 3-6.6602 7.6445-6.2539 10.727 0.81641 6.2773-3.1211 10.164-4.4766 13.43-0.69531 1.6445-1.2617 5.8789 0 7.1641 1.7383 1.7383 7.2109 2.0508 9.3242 3.3008 3.1445 1.8828 9.457 8.3281 12.145 8.3281s2.207 4.2461 2.6875 6.2539c0.78125 3.2539 0.89844 13.402 0.89844 13.402v12.539s-3.0469 8.1602-1.7891 12.516c4.7266 16.285 17.16 24.984 31.285 23.293 0 0 12.672 11.062 16.355 12.562 4.4648 1.7773 12.277 0.79297 15.863 7.0547 3.5742 6.3008 13.824 35.137 20.363 39 6.9844 4.1289 13.008 29.508 18.996 34.355 7.4023 6 22.703 6.8633 24.145 6.2539 1.1758-0.46875-0.27734-3.3008 0.85156-3.8633 1.4023-0.70703 8.3398 0.86328 8.9883-0.61328 0.99609-2.207-3.5742-5.9531-2.2578-7.9688 1.3789-2.1133 6.0586 2.3633 7.8594 0.63672 1.1406-1.1055-2.2812-4.8008-1.3672-6.0977 0.64844-0.9375 3.0586 0.88672 3.8164 0.023437 2.0625-2.3398-0.67188-11.832 2.207-13.105 1.3086-0.5625 2.6992 2.4102 3.9844 1.7773 2.6172-1.2461-1.6914-8.2578 0.21484-10.453 1.0312-1.1992 3.1562 2.6992 4.1875 1.5234 1.0312-1.2227-1.1875-4.7773 1.0312-7.4766 1.8594-2.2695 4.6211 0.37109 5.7734-0.44531 1.6328-1.1992-2.1484-4.8008-0.40625-5.8086 5.5781-3.2539 8.1367-0.91016 14.867-2.207 4.4883-0.86328 7.0664-4.668 9.2891-4.9453 1.7266-0.23828 4.6914 3.3945 7.5352 1.5977 1.5117-0.98438 2.8555 4.7773 4.6562 4.6445 3.168-0.25391 4.9219-5.1133 6.4688-2.3398 1.2852 2.3398 5.6875 4.5703 7.5 2.8555 2.0391-1.9219 3.8281-1.1758 6.4688 1.2852 0.92578 0.86328 4.5234 0.81641 5.6992 1.2852 1.2344 0.51563 3.3359 5.2578 4.3906 4.4023 2.3281-1.8008 3.3477-7.9922 3.625-6.7305 0.78125 3.6367 2.5938 8.8086 7.3203 9.9844 2.0039 0.49219 6.0859 2.4102 8.0508 1.7773 2.2578-0.73047 4.0312-7.9922 6.2539-7.1523 2.5078 0.9375-2.4375 11.855 0 10.738 3.4805-1.6445 4.5117-3.4453 7.1641 0 1.0664 1.3789 2.6758 4.4766 5.3633 4.4766s7.6797 0.81641 7.1641 2.6758c-2.7461 9.8398-0.9375 32.09-1.7148 34.43-2.832 8.4844-2.9414 12.145-3.6602 16.57-0.5625 3.4922-3.0703 10.152-4.4766 13.402-1.5 3.4688-5.9141 9.8164-7.1523 13.402-1.2617 3.6602-2.9766 28.176-3.9492 33.047-0.60156 3.0234-5.3633 8.1602-7.3438 10.547-3.0469 3.7305-10.066 5.7617-13.766 8.832-5.2188 4.332-12.191 12.07-9.6367 14.676 3.1445 3.2148 25.176 8.1133 28.598 8.0898 4.668 0 27.984-1.8477 33.191-6.5156 3.5039-3.1211 10.008-5.8086 12.504-9.8398 2.2422-3.6133 2.5547-12.613 3.1094-16.824 0.79297-5.9531 7.043-17.316 6.2148-23.27-0.35938-2.5781-2.2422-6.8633-1.2969-9.3242 0.83984-2.1602 1.5703-0.73047 3.3594-2.2578 3.4453-2.8789 3.5742-15.613 8.0508-16.078 2.8438-0.30078 5.4609 6.6367 7.1523 8.9297 1.9688 2.6758 7.0078 7.1992 9.8398 8.9531 2.6523 1.6445 9.0586 6.2383 11.629 4.4766 1.668-1.1523-1.5-6.707 0-8.0391 1.5117-1.3789 6.2773 1.8477 8.0508 0.86328 2.1953-1.1992 2.207-7.8945 4.4766-8.9531 0.83984-0.34766 2.6992 0.63672 3.5742 0.9375 1.9453 0.5625 6 3.8164 7.6562 2.6523 0.91016-0.63672-1.0781-4.1758 0-4.4766 2.2578-0.63672 3.1211 5.8789 5.293 4.9922 1.2969-0.5625 2.3164-8.4609 4.6562-10.621 1.3906-1.3086 5.9883 0.63672 7.4297-0.61328 2.1133-1.8477 2.6523-10.547 5.3633-9.8398 1.5117 0.37109 0.98438 4.332 1.6797 2.9531 7.6562-15.492 15.312-27.121 20.688-28.895 5.3633-1.8008 5.7344-5.0156 10.738-1.8008 1.7383 1.1289 2.2188-6.168 4.2461-5.7461 1.9688 0.37109 4.0078 3.4453 4.4648 5.3867 0.46875 1.9453 1.1523 4.7773 3.0469 5.4375 2.4102 0.79297 2.9531-4.8242 5.4961-4.6914 2.6055 0.19141 3.5273 7.8477 4.2227 10.355 0.66016 2.3633 1.4531 7.0078 2.2578 9.3008 1.6445 4.8477 6.6953 12.168 7.5859 18.422 0.88672 6.2383 0.26563 20.039 0 23.258-0.34766 4.1523 1.6914 10.402 0.19141 16.992-1.4648 6.3945-5.6055 14.746-7.3438 19.668-1.0547 3.0469-14.41 11.258-16.141 13.945-1.1172 1.7383-9.3828 10.078-9.1328 12.145 0.22656 1.8945 14.605 3.9844 19.895 4.9688 6.8398 1.2461 19.727 0.61328 24.875 0.61328 3.3477 0 18.07-7.1289 19.715-10.055 4.0195-7.1758 4.7031-15.66 5.7734-18.539 2.3398-6.3242 9.6719-19.402 10.57-22.992 0.89844-3.5898 2.1133-10.43 6.8398-13.691 6.9844-4.8242 7.6914-3.0234 9.168-1.2617 1.5117 1.8242 2.6875 4.2461 4.9219 3.3945 2.5078-0.9375-1.2461-6.2539 1.3555-6.9844 2.5078-0.68359 3.1914 4.9453 5.6992 4.2461 3.7578-1.0547-1.8945-5.832-0.34766-6.9102 2.0156-1.332 6.5391 2.6523 8.2305 0.91016 1.5234-1.5703-4.332-3.7578-2.832-5.3633 1.4023-1.5977 8.3867 2.1836 9.6602 0.46875 1.6445-2.1836-6.6602-6.5156-6.3945-9.2148 0.19141-2.207 4.5469-3.2773 6.3477-4.5703 1.6211-1.1758 4.5234-1.1055 5.5781-2.7852 0.9375-1.5234-0.25391-3.7578 1.3789-4.4531 2.0898-0.88672 5.9023 2.3398 5.1367 0.25391-1.0078-2.6523-7.332-6.0703-8.293-9.2383-0.63672-2.0898 3.5391 3.7578 4.8008 1.9922 1.7773-2.5078-5.6055-6.5625-3.9102-9.1445 1.0547-1.5977 5.9023 2.9531 7.4023 1.7773 1.9453-1.5469-1.3086-5.6758 0-7.1289 1.1523-1.3086 3.793 3.0977 4.9688 1.8008 1.6914-1.8711-0.44531-7.9219 0.49219-10.262 0.58984-1.3789 0 0 0.5625-1.4023 0.81641-2.1836-5.9023-3.0234-5.0898-5.207 0.91016-2.5078 6.3945-2.0391 9.5391-3.7578 2.6055-1.4023-8.9531-2.832-10.477-5.3633-0.81641-1.332 2.2695-4.8477 1.332-6.1211-0.86328-1.1758-7.0078-0.44531-6.9609-1.9453 0.097657-2.7461 10.645 0.097656 10.738-2.6758 0.12109-2.8086-10.691-0.75781-10.738-3.5625-0.023437-2.6289-3.0469-2.3867-2.8555-4.9922 0.23828-3.3008 3.6133-2.7461 1.0781-4.8477-1.1055-0.91016-7.0078-3.3008-7.8008-4.4766-1.0312-1.5-2.4844-3.2383-1.5469-5.6992 0.68359-1.8711-2.3164-1.9219-1.8242-3.8867 0.81641-3.1914 2.1367-0.097656 0.44531-2.9297-1.2617-2.1602 0.37109-7.6211 1.1055-10.008 0.46875-1.5 0.91016-5.293 2.4844-5.207 5.832 0.34766-0.21484-6.8398 0.63672-7.9922 1.7539-2.3633 9.793-2.8555 12.168-4.668 4.7539-3.5391 9.5625-6.1211 22.992-7.0312 13.402-0.88672 17.879 2.6758 25.922 3.5625 8.0625 0.9375 24.145 0.9375 33.098 2.6992 8.9531 1.8008 39.098 12.191 48.395 11.387 8.0898-0.66016 6.5898 4.7773 12.422 7.2461 5.7227 2.4375 14.293 1.7383 21.469 0 20.629-4.9688 35.93-13.895 42.191-18.371 6.2656-4.4766 32.855-27.73 38.316-26.184 7.5 2.1367 7.7539 45.758 9.5625 54.91 1.668 8.4102 8.2578 60.637 6.4688 67.801-1.7773 7.1523-15.145 35.605-17.809 41.855-2.6992 6.2539-22.379 34.871-27.758 39.348-5.375 4.4766-19.668 16.129-24.145 22.355-4.4531 6.2539-8.0625 9.8398 0.88672 11.629 8.9531 1.7891 14.316 4.4766 27.758 4.4766 13.402 0 21.445 0.88672 30.395-4.4766 8.9297-5.3633 15.215-9.8398 16.992-17.855 1.7773-8.0625 4.4766-17.902 8.0391-25.055 3.5898-7.1758 21.562-38.293 29.363-48.492 8.0898-10.547 14.461-23.977 19.824-27.562 5.3867-3.5625 7.1758-8.0391 8.0625-13.402 0.88672-5.3398-3.8164-15.047-3.8164-23.977 0-8.9297 1.1523-31.777 1.1523-37.008 0-5.207 11.629-18.637 11.629-18.637s36.66 40.262 42.91 47.41c6.2539 7.1758 26.832 19.691 31.309 25.031 4.4766 5.3633 24.168 25.969 25.945 36.707s15.215 55.453 16.105 62.605c0.88672 7.1758-5.4102 21.816-6.1445 25.453-1.0312 5.1602-7.4531 21.191-9.0703 23.746-1.3555 2.1602-3.9844 7.6445-2.6758 9.8398 2.8086 4.7148 18.91 4.4766 21.516 4.4766 2.6289 0 17.207-1.8242 23.629-5.2305 4.8008-2.5078 9.9609-9.9844 11.113-13.43 1.6445-4.8711-2.0625-18.371-1.5469-23.555 0.46875-4.8008-1.3086-25.031-1.3086-29.508 0-4.4766 2.0391-6.9609 3.7695-8.0156 1.1055-0.68359-2.832-0.27734-2.9766-1.5703-0.30078-2.5781 0.42188-3.9375-0.51562-6.3711-0.68359-1.668 5.0156-5.1836 3.5625-6.2539-11.855-8.832-7.4531-9.0977-0.88672-10.738 1.4531-0.34766-4.9922-1.2227-5.3633-2.6992-0.27734-1.1055 1.9922-2.832 2.6523-3.7695 0.88672-1.2852-4.8477-1.4531-5.1367-3-0.75781-3.9844-2.3398-7.8008-4.668-11.09-1.9688-2.7617-1.8008-7.1758-1.8008-13.43 0-6.2539-4.4766-18.793-4.4766-26.832 0-8.0625-4.4531-20.555-4.4531-24.145s0.98438-13.523-3.5898-16.992c-13.871-10.523-44.34-41.953-48.301-67.105-3.3477-21.301 8.293-52.883 11.137-68.148 2.3867-12.805-2.207-50.555-3.1211-57.707-0.88672-7.1523 2.7227-32.461-3.5391-44.988-6.2656-12.527-14.316-24.156-14.316-24.156s17.902 1.7891 25.945 9.8398c8.0625 8.0508 18.77 21.469 20.578 33.996 1.7773 12.516 7.1523 29.508 6.2539 33.086-0.88672 3.5742-12.516 24.156-12.516 26.832s-2.8555 14.785-2.6992 20.578c0.070313 2.0039 1.8008 5.1367 3.0234 8.4961 1.2227 3.3594 15.07 11.867 19.715 13.945-4.8945-7.5117-9.5156-11.293-13.777-20.652 12.215 12.863 13.008 16.164 24.91 22.871 4.8945 2.7617 18.047 3.3008 23.555 3.7188-4.7148-1.9688-8.7617-3.6367-14.484-6.9258-3.2773-1.8711-5.3633-8.4609-6.9844-11.711-1.1992-2.3984-2.1836-10.094-2.8555-14.746 2.9141 3.6172 6.2617 10.781 8.8906 13.098zm-863.61-106.74c-2.0156 14.039-15.359 27.898-31.859 29.82-13.535 1.5859-29.988-17.629-26.785-29.531 1.4648-5.4609 12.828-1.2227 22.668-10.176 9.8281-8.9414-1.9922-72.023 1.4414-72.215 3.2031-0.15625 21.047 28.188 28.598 46.934 5.2422 13.027 7.6914 22.961 5.9375 35.168z"/>
</svg>
