<svg height='100px' width='100px'  fill="#000000" xmlns="http://www.w3.org/2000/svg" xmlns:xlink="http://www.w3.org/1999/xlink" version="1.1" x="0px" y="0px" viewBox="0 0 100 100" enable-background="new 0 0 100 100" xml:space="preserve"><g><path fill="#000000" d="M30.962,68H68.21c0.717,0,1.309-0.71,1.352-1.425l2.658-44.756c0.022-0.373-0.109-0.93-0.364-1.201   C71.599,20.346,71.241,20,70.869,20h-43.1c-0.376,0-0.734,0.311-0.991,0.586c-0.256,0.274-0.386,0.722-0.359,1.096l3.193,44.87   C29.662,67.261,30.252,68,30.962,68z M32.223,65l-0.967-14H67.74l-0.807,14H32.223z M49.289,49c1.023-3,3.69-4.033,6.82-4.033   c3.119,0,5.798,1.033,6.823,4.033H49.289z M69.432,23L67.9,49h-2.088c-1.073-4-5.054-6.741-9.703-6.741   c-4.668,0-8.628,2.741-9.699,6.741H31.062l-1.839-26H69.432z"></path><path fill="#000000" d="M37.811,55.061c-2.053,0-3.723,1.67-3.723,3.724c0,2.053,1.67,3.723,3.723,3.723s3.723-1.67,3.723-3.723   C41.534,56.73,39.864,55.061,37.811,55.061z M37.811,59.799c-0.56,0-1.016-0.456-1.016-1.015c0-0.56,0.456-1.016,1.016-1.016   s1.016,0.456,1.016,1.016C38.827,59.343,38.371,59.799,37.811,59.799z"></path><path fill="#000000" d="M62.182,55.061c-2.053,0-3.723,1.67-3.723,3.724c0,2.053,1.67,3.723,3.723,3.723   c2.054,0,3.724-1.67,3.724-3.723C65.905,56.73,64.235,55.061,62.182,55.061z M62.182,59.799c-0.561,0-1.016-0.456-1.016-1.015   c0-0.56,0.455-1.016,1.016-1.016s1.016,0.456,1.016,1.016C63.197,59.343,62.742,59.799,62.182,59.799z"></path><path fill="#000000" d="M81.016,98.185L69.428,81h10.241C80.418,81,81,80.631,81,79.882V25.725   c-0.125-0.85-6.959-11.318-6.959-11.318C73.795,14.01,73.366,14,72.899,14H52V8h1.944c0.486,0,0.935-0.053,1.176-0.475L57.824,3   h4.244c0.748,0,1.354-0.752,1.354-1.5S62.816,0,62.068,0H39.051c-0.748,0-1.354,0.752-1.354,1.5S38.304,3,39.051,3h3.79   l2.458,4.482C45.533,7.928,45.994,8,46.498,8H49v6H25.512c-0.466,0-0.9,0.01-1.148,0.406L17.9,25.124   C17.766,25.337,18,79.882,18,79.882C18,80.631,17.995,81,18.742,81h10.73l-8.741,12.539c-0.29,0.188-0.494,0.529-0.575,0.875   l-2.522,3.614c-0.43,0.611-0.284,1.472,0.328,1.902c0.237,0.167,0.509,0.253,0.778,0.253c0.426,0,0.845-0.262,1.109-0.635   L22.304,96h53.964l2.508,3.758c0.262,0.387,0.688,0.626,1.121,0.626c0.262,0,0.526-0.117,0.759-0.275   C81.274,99.688,81.436,98.803,81.016,98.185z M47.317,5l-1.418-2h8.808l-1.547,2H47.317z M26.262,16h45.886L79,26.113V72H20V26.113   L26.262,16z M20,74h59v5H20V74z M66.234,81c0.038,0,0.064,0.18,0.13,0.279L68.912,85H29.925l2.787-3.928   C32.734,81.041,32.738,81,32.757,81H66.234z M24.209,93l3.836-5.242C28.105,87.766,28.158,88,28.22,88h41.972   c0.175,0,0.339-0.248,0.492-0.308L74.428,93H24.209z"></path><path fill="#000000" d="M56.14,40.837c4.313,0,7.822-3.509,7.822-7.825c0-4.315-3.51-7.826-7.822-7.826   c-4.315,0-7.828,3.511-7.828,7.826C48.312,37.329,51.824,40.837,56.14,40.837z M56.14,27.895c2.82,0,5.114,2.297,5.114,5.118   c0,2.822-2.294,5.117-5.114,5.117c-2.823,0-5.12-2.295-5.12-5.117C51.02,30.191,53.316,27.895,56.14,27.895z"></path></g></svg>